<?xml version="1.0" encoding="utf-8"?>
<!-- Generator: Adobe Illustrator 26.0.1, SVG Export Plug-In . SVG Version: 6.00 Build 0)  -->
<svg version="1.1" xmlns="http://www.w3.org/2000/svg" xmlns:xlink="http://www.w3.org/1999/xlink" x="0px" y="0px"
	 viewBox="0 0 1080 1080" style="enable-background:new 0 0 1080 1080;" xml:space="preserve">
<style type="text/css">
	.st0{display:none;}
	.st1{display:inline;}
	.st2{fill:#F5F5F5;}
	.st3{fill:#EBEBEB;}
	.st4{fill:#D2F797;}
	.st5{fill:#B0DE73;}
	.st6{fill:#699033;}
	.st7{fill:#79B033;}
	.st8{fill:#263238;}
	.st9{fill:#455A64;}
	.st10{opacity:0.3;}
	.st11{fill:#A2675F;}
	.st12{fill:#7A4A45;}
	.st13{fill:#FAFAFA;}
	.st14{fill:#6A8E32;}
	.st15{fill:none;stroke:#839198;stroke-width:0.05;stroke-miterlimit:10;}
	.st16{fill:#E0E0E0;}
	.st17{fill:#8E908D;}
	.st18{fill:#FFFFFF;}
	.st19{fill:#7B7E78;}
	.st20{font-family:'MyriadPro-Regular';}
	.st21{font-size:42.0034px;}
</style>
<g id="Background_Complete">
</g>
<g id="Background_Simple" class="st0">
	<g class="st1">
		<path class="st2" d="M1567.82,517.16l-2.16-3.56c-18.22-30.03-51.16-48.13-85.9-45.93c-4.46,0.28-8.91,0.89-13.3,1.83
			c-31.58,6.76-59.06,30.64-70.45,61.22c-6.7,17.99-8.57,38.7-21.28,52.97c-16.54,18.58-44.63,19.16-69.32,18.39
			c-24.69-0.77-52.8-0.11-69.26,18.54c-10.31,11.68-13.59,28.3-12.76,43.94c2.2,41.42,31.07,78.46,67.77,96.87
			c36.71,18.41,79.93,20.06,120.1,11.96c56.28-11.35,109.8-42.5,141.97-90.62C1585.42,634.66,1593.56,569.1,1567.82,517.16z"/>
	</g>
	<g class="st1">
		<circle class="st2" cx="1320.48" cy="526.01" r="31.11"/>
	</g>
</g>
<g id="Floor">
</g>
<g id="Plants">
</g>
<g id="Character">
</g>
<g id="Device">
	<g>
		<g>
			<g>
				<g>
					<g>
						<polygon class="st3" points="302.66,413.81 302.66,428.64 317.49,428.64 317.49,413.81 317.49,398.98 302.66,398.98 						"/>
					</g>
				</g>
				<g>
					<g>
						<rect x="302.66" y="324.83" class="st3" width="14.83" height="14.83"/>
					</g>
				</g>
				<g>
					<g>
						<rect x="394.31" y="488.11" class="st3" width="14.83" height="14.83"/>
					</g>
				</g>
				<g>
					<g>
						<polygon class="st3" points="317.49,354.49 317.49,369.32 302.66,369.32 302.66,384.15 317.49,384.15 317.49,398.98 
							332.32,398.98 347.15,398.98 347.15,413.81 361.99,413.81 361.99,398.98 376.82,398.98 376.82,384.15 376.82,369.32 
							361.99,369.32 361.99,384.15 347.15,384.15 332.32,384.15 332.32,369.32 332.32,354.49 332.32,339.66 317.49,339.66 						"/>
					</g>
				</g>
				<g>
					<g>
						<polygon class="st3" points="347.15,324.83 332.32,324.83 332.32,339.66 347.15,339.66 361.99,339.66 361.99,324.83 						"/>
					</g>
				</g>
				<g>
					<g>
						<polygon class="st3" points="413.89,444.05 421.86,444.05 421.86,429.22 413.89,429.22 405.92,429.22 405.92,444.05 						"/>
					</g>
				</g>
				<g>
					<g>
						<rect x="361.99" y="339.66" class="st3" width="14.83" height="14.83"/>
					</g>
				</g>
				<g>
					<g>
						<rect x="465.8" y="398.98" class="st3" width="14.83" height="14.83"/>
					</g>
				</g>
				<g>
					<g>
						<rect x="480.63" y="235.85" class="st3" width="14.83" height="14.83"/>
					</g>
				</g>
				<g>
					<g>
						<polygon class="st3" points="406.48,354.49 406.48,339.66 421.31,339.66 421.31,324.83 406.48,324.83 406.48,310 391.65,310 
							391.65,324.83 376.82,324.83 376.82,339.66 391.65,339.66 391.65,354.49 391.65,369.32 391.65,384.15 391.65,398.98 
							406.48,398.98 406.48,384.15 406.48,369.32 421.31,369.32 421.31,354.49 						"/>
					</g>
				</g>
				<g>
					<g>
						<polygon class="st3" points="480.63,502.79 495.46,502.79 495.46,487.96 480.63,487.96 465.8,487.96 465.8,502.79 						"/>
					</g>
				</g>
				<g>
					<g>
						<rect x="450.97" y="235.85" class="st3" width="14.83" height="14.83"/>
					</g>
				</g>
				<g>
					<g>
						<polygon class="st3" points="462.09,354.49 462.09,339.66 447.26,339.66 447.26,324.83 432.43,324.83 432.43,339.66 
							432.43,354.49 417.6,354.49 417.6,369.32 432.43,369.32 447.26,369.32 447.26,354.49 						"/>
					</g>
				</g>
				<g>
					<g>
						<rect x="530.96" y="324.83" class="st3" width="14.83" height="14.83"/>
					</g>
				</g>
				<g>
					<g>
						<rect x="377.24" y="398.98" class="st3" width="14.83" height="14.83"/>
					</g>
				</g>
				<g>
					<g>
						<polygon class="st3" points="450.97,310 450.97,295.17 465.8,295.17 465.8,280.34 480.63,280.34 495.46,280.34 495.46,265.51 
							480.63,265.51 480.63,250.68 465.8,250.68 465.8,265.51 450.97,265.51 450.97,280.34 436.14,280.34 436.14,295.17 
							421.31,295.17 421.31,310 436.14,310 						"/>
					</g>
				</g>
				<g>
					<g>
						<polygon class="st3" points="450.97,413.81 450.97,398.98 465.8,398.98 465.8,384.15 450.97,384.15 436.14,384.15 
							436.14,398.98 421.31,398.98 421.31,413.81 436.14,413.81 						"/>
					</g>
				</g>
				<g>
					<g>
						<polygon class="st3" points="495.46,473.12 495.46,458.29 480.63,458.29 465.8,458.29 465.8,443.46 450.97,443.46 
							450.97,458.29 436.14,458.29 436.14,473.12 421.31,473.12 406.48,473.12 406.48,487.95 421.31,487.95 436.14,487.95 
							450.97,487.95 450.97,473.12 465.8,473.12 465.8,487.95 480.63,487.95 480.63,473.12 						"/>
					</g>
				</g>
				<g>
					<g>
						<polygon class="st3" points="436.14,250.68 436.14,235.85 421.31,235.85 406.48,235.85 406.48,250.68 391.65,250.68 
							391.65,265.51 406.48,265.51 421.31,265.51 421.31,250.68 						"/>
					</g>
				</g>
				<g>
					<g>
						<rect x="421.31" y="265.51" class="st3" width="14.83" height="14.83"/>
					</g>
				</g>
				<g>
					<g>
						<polygon class="st3" points="473.21,324.83 458.38,324.83 458.38,339.66 458.38,354.49 458.38,369.32 473.21,369.32 
							488.04,369.32 488.04,354.49 473.21,354.49 473.21,339.66 488.04,339.66 488.04,324.83 502.87,324.83 502.87,310 488.04,310 
							488.04,295.17 473.21,295.17 473.21,310 						"/>
					</g>
				</g>
				<g>
					<g>
						<rect x="406.48" y="280.34" class="st3" width="14.83" height="14.83"/>
					</g>
				</g>
				<g>
					<g>
						<polygon class="st3" points="465.8,428.64 465.8,443.47 480.63,443.47 495.46,443.47 495.46,428.64 510.29,428.64 
							525.12,428.64 525.12,413.81 510.29,413.81 495.46,413.81 480.63,413.81 480.63,428.64 						"/>
					</g>
				</g>
				<g>
					<g>
						<rect x="530.96" y="369.32" class="st3" width="14.83" height="14.83"/>
					</g>
				</g>
				<g>
					<g>
						<rect x="480.63" y="384.15" class="st3" width="14.83" height="14.83"/>
					</g>
				</g>
				<g>
					<g>
						<polygon class="st3" points="532.53,339.66 517.7,339.66 502.87,339.66 502.87,354.49 517.7,354.49 517.7,369.32 
							532.53,369.32 532.53,354.49 						"/>
					</g>
				</g>
				<g>
					<g>
						<rect x="510.29" y="384.15" class="st3" width="14.83" height="14.83"/>
					</g>
				</g>
				<g>
					<g>
						<path class="st3" d="M361.99,473.41h44.51v-59.61h-59.62v14.85h-14.55v14.83h14.55v14.83h-14.55v14.83h14.55v0.28h0.28v14.55
							h-14.83v14.83v14.83h14.83v-14.83h14.83v-14.83V473.41z M395.08,425.21v37.08H358v-37.08H395.08z"/>
					</g>
				</g>
				<g>
					<g>
						<polygon class="st3" points="554.78,413.81 569.61,413.81 569.61,398.98 554.78,398.98 539.95,398.98 525.12,398.98 
							525.12,413.81 539.95,413.81 						"/>
					</g>
				</g>
				<g>
					<g>
						<polygon class="st3" points="554.78,354.49 569.61,354.49 569.61,339.66 569.61,324.83 554.78,324.83 554.78,339.66 						"/>
					</g>
				</g>
				<g>
					<g>
						<polygon class="st3" points="436.69,429.22 421.86,429.22 421.86,444.05 421.86,458.88 436.69,458.88 436.69,444.05 						"/>
					</g>
				</g>
				<g>
					<g>
						<rect x="569.61" y="413.81" class="st3" width="14.83" height="14.83"/>
					</g>
				</g>
				<g>
					<g>
						<polygon class="st3" points="584.44,384.15 584.44,369.32 569.61,369.32 569.61,384.15 569.61,398.98 584.44,398.98 						"/>
					</g>
				</g>
				<g>
					<g>
						<polygon class="st3" points="317.49,487.96 302.66,487.96 302.66,502.79 302.66,517.62 317.49,517.62 317.49,502.79 						"/>
					</g>
				</g>
				<g>
					<g>
						<path class="st3" d="M584.44,310v-74.15h-74.15V310H584.44z M521.41,298.87v-51.91h51.91v51.91H521.41z"/>
					</g>
				</g>
				<g>
					<g>
						<rect x="532.53" y="258.09" class="st3" width="29.66" height="29.66"/>
					</g>
				</g>
				<g>
					<g>
						<path class="st3" d="M584.44,443.47h-74.15v74.15h74.15V443.47z M521.41,506.5v-51.91h51.91v51.91H521.41z"/>
					</g>
				</g>
				<g>
					<g>
						<rect x="532.53" y="465.71" class="st3" width="29.66" height="29.66"/>
					</g>
				</g>
				<g>
					<g>
						<path class="st3" d="M302.48,235.85V310h74.15v-74.15H302.48z M365.51,246.97v51.91H313.6v-51.91H365.51z"/>
					</g>
				</g>
				<g>
					<g>
						<rect x="324.72" y="258.09" class="st3" width="29.66" height="29.66"/>
					</g>
				</g>
			</g>
		</g>
		<g>
			<g>
				<g>
					<g>
						
							<ellipse transform="matrix(0.2465 -0.9691 0.9691 0.2465 -376.5517 568.1842)" class="st4" cx="177.13" cy="526.26" rx="7.02" ry="7.02"/>
					</g>
					<g>
						<g>
							<path class="st5" d="M163.1,517.27c7.71-8.09,20.24-8.34,28.15-0.37c3.58,3.61,9.19-1.94,5.61-5.56
								c-10.85-10.93-28.66-10.87-39.31,0.32C154.04,515.34,159.59,520.96,163.1,517.27L163.1,517.27z"/>
						</g>
					</g>
					<g>
						<g>
							<path class="st6" d="M139.26,484.59c10.67-9.23,23.42-15.04,37.69-15.07c14.14-0.04,28.09,4.99,38.45,14.71
								c3.7,3.48,9.32-2.07,5.61-5.56c-11.87-11.14-27.78-17.09-44.02-17.05c-16.42,0.04-31.01,6.75-43.28,17.36
								C129.85,482.31,135.43,487.9,139.26,484.59L139.26,484.59z"/>
						</g>
					</g>
					<g>
						<g>
							<path class="st7" d="M148.67,502.7c7.16-7.74,17.19-12.58,27.79-12.82c10.89-0.25,21.4,4.24,28.97,12.01
								c3.55,3.65,9.16-1.91,5.61-5.56c-8.96-9.2-21.65-14.65-34.54-14.35c-12.61,0.29-24.83,5.86-33.38,15.11
								C139.66,500.82,145.21,506.44,148.67,502.7L148.67,502.7z"/>
						</g>
					</g>
				</g>
			</g>
		</g>
		<g>
			<g>
				<path class="st3" d="M487.82,142.36c1.19-8.68-11.05-15.82-20.26-16.56c-4.39-0.35-8.95,0.32-13.11-1.13
					c-9.01-3.14-12.61-14.78-21.4-18.49c-6.57-2.77-14.14-0.3-20.51,2.9s-12.67,7.24-19.79,7.7c-6.19,0.4-12.92-1.9-18.33,1.12
					c-4.04,2.25-6.15,6.91-9.87,9.65c-3.64,2.68-8.39,3.25-12.9,3.5c-4.52,0.25-9.19,0.29-13.3,2.17
					c-4.11,1.88-7.51,6.23-6.66,10.67L487.82,142.36z"/>
			</g>
		</g>
		<g>
			<g>
				<path class="st2" d="M251.48,288.99c1.07-7.78-9.91-14.18-18.16-14.85c-3.93-0.32-8.02,0.28-11.75-1.01
					c-8.08-2.82-11.3-13.25-19.18-16.57c-5.89-2.48-12.67-0.27-18.39,2.6c-5.71,2.87-11.36,6.49-17.74,6.9
					c-5.55,0.36-11.58-1.7-16.43,1.01c-3.62,2.02-5.51,6.19-8.85,8.65c-3.26,2.41-7.52,2.92-11.57,3.14
					c-4.05,0.22-8.24,0.26-11.93,1.95c-3.69,1.69-6.74,5.59-5.97,9.57L251.48,288.99z"/>
			</g>
		</g>
		<g>
			<g>
				<path class="st2" d="M992.85,283.48c1.15-8.33-10.61-15.18-19.45-15.9c-4.21-0.34-8.59,0.3-12.58-1.09
					c-8.65-3.01-12.1-14.19-20.54-17.75c-6.31-2.66-13.57-0.29-19.69,2.79c-6.12,3.08-12.16,6.95-18.99,7.39
					c-5.94,0.38-12.4-1.82-17.6,1.08c-3.87,2.16-5.9,6.63-9.48,9.26c-3.49,2.58-8.05,3.12-12.39,3.36
					c-4.34,0.24-8.82,0.28-12.77,2.09c-3.95,1.81-7.21,5.98-6.39,10.24L992.85,283.48z"/>
			</g>
		</g>
		<g>
			<g>
				<path class="st8" d="M975.21,974.51c0,0.28-198.83,0.52-444.05,0.52c-245.3,0-444.09-0.23-444.09-0.52
					c0-0.28,198.79-0.52,444.09-0.52C776.38,973.99,975.21,974.22,975.21,974.51z"/>
			</g>
		</g>
		<g>
			<g>
				<g>
					<g>
						<path class="st6" d="M868.84,887.48c3.96,1.72,6.88,5.38,8.34,9.45c1.46,4.06,1.59,8.51,1.11,12.8
							c-0.94,8.31-5.66,16.69-10.74,23.33c-6.99-6.1-8.6-16.75-9.08-22.2C857.71,902.23,861.58,886.19,868.84,887.48"/>
					</g>
				</g>
			</g>
			<g>
				<g>
					<g>
						<path class="st7" d="M875.68,946.76c-1.12-4.69,0.83-9.84,4.44-13.05c3.6-3.21,8.64-4.57,13.45-4.2
							c2.22,0.17,4.63,0.82,5.9,2.65c1.19,1.71,1.06,4.1,0.09,5.95c-0.97,1.85-2.64,3.23-4.41,4.34
							C889.09,946.25,882.53,948.81,875.68,946.76"/>
					</g>
				</g>
			</g>
			<g>
				<g>
					<g>
						<g>
							<path class="st8" d="M866.71,972.22c-0.04-0.01,0.05-0.62,0.25-1.7c0.22-1.2,0.5-2.75,0.85-4.61
								c0.77-3.85,1.77-9.38,4.76-14.73c2.95-5.35,7.09-9.28,10.57-11.24c1.73-1,3.24-1.6,4.31-1.91c0.53-0.18,0.96-0.25,1.24-0.32
								c0.29-0.06,0.44-0.08,0.44-0.06c0.05,0.14-2.42,0.58-5.78,2.65c-3.36,2.01-7.36,5.91-10.27,11.16
								c-2.94,5.25-3.99,10.69-4.87,14.53c-0.42,1.93-0.77,3.5-1.03,4.57C866.92,971.64,866.75,972.23,866.71,972.22z"/>
						</g>
					</g>
				</g>
			</g>
			<g>
				<g>
					<g>
						<g>
							<path class="st8" d="M866.97,899.95c0.02,0,0.05,0.26,0.09,0.74c0.03,0.55,0.08,1.26,0.13,2.14c0.1,1.86,0.21,4.55,0.32,7.88
								c0.22,6.65,0.38,15.85,0.34,26.01c-0.05,10.16-0.29,19.36-0.57,26.01c-0.14,3.33-0.27,6.02-0.38,7.88
								c-0.06,0.88-0.11,1.59-0.15,2.14c-0.04,0.49-0.07,0.74-0.09,0.74c-0.02,0-0.03-0.26-0.03-0.75c0.01-0.55,0.02-1.26,0.03-2.14
								c0.05-1.94,0.11-4.61,0.19-7.88c0.16-6.65,0.34-15.85,0.39-26c0.04-10.15-0.06-19.35-0.16-26c-0.05-3.27-0.09-5.94-0.12-7.88
								c-0.01-0.88-0.01-1.59-0.01-2.14C866.94,900.21,866.95,899.95,866.97,899.95z"/>
						</g>
					</g>
				</g>
			</g>
			<g>
				<g>
					<g>
						<path class="st7" d="M863.58,951.81c-1.59-10.05-8.36-19.13-17.54-23.53c-2.34-1.12-5.39-1.85-7.31-0.11
							c-1.92,1.74-1.49,4.87-0.55,7.28c3.92,10.06,14.44,17.17,25.24,17.04"/>
					</g>
				</g>
			</g>
			<g>
				<g>
					<g>
						<g>
							<path class="st8" d="M847.17,936.16c0.02-0.04,0.54,0.19,1.48,0.65c0.47,0.22,1.05,0.5,1.68,0.89
								c0.63,0.39,1.39,0.78,2.13,1.34c0.76,0.54,1.61,1.11,2.44,1.84c0.87,0.68,1.71,1.5,2.6,2.36c1.72,1.78,3.46,3.9,4.94,6.35
								c1.46,2.46,2.52,4.99,3.25,7.36c0.33,1.19,0.65,2.33,0.82,3.42c0.24,1.08,0.32,2.1,0.42,3.03c0.13,0.93,0.09,1.78,0.12,2.52
								c0.03,0.74-0.01,1.38-0.06,1.9c-0.08,1.04-0.14,1.61-0.18,1.61c-0.14-0.01,0.1-2.31-0.31-5.98
								c-0.12-0.92-0.23-1.92-0.49-2.98c-0.19-1.07-0.52-2.18-0.86-3.35c-0.76-2.31-1.81-4.79-3.24-7.21
								c-1.46-2.41-3.15-4.5-4.82-6.27c-0.86-0.86-1.68-1.68-2.52-2.37c-0.8-0.73-1.63-1.32-2.37-1.87
								C849.22,937.24,847.11,936.28,847.17,936.16z"/>
						</g>
					</g>
				</g>
			</g>
		</g>
		<g>
			<g>
				<g>
					<path class="st8" d="M337.37,974.54c-0.16,0.02-0.56-2.16-1.35-5.63c-0.79-3.48-2.03-8.25-3.82-13.38
						c-1.79-5.13-3.78-9.64-5.32-12.86c-1.54-3.22-2.57-5.18-2.44-5.26c0.11-0.06,1.37,1.77,3.09,4.93
						c1.72,3.15,3.83,7.67,5.64,12.85c1.8,5.19,2.95,10.04,3.56,13.57C337.35,972.3,337.5,974.52,337.37,974.54z"/>
				</g>
			</g>
			<g>
				<g>
					<path class="st8" d="M354.93,888.92c0.07,0.02-0.11,1.21-0.49,3.35c-0.39,2.14-0.93,5.25-1.56,9.09
						c-1.26,7.68-2.72,18.34-3.63,30.17c-0.9,11.84-1.08,22.6-1,30.38c0.03,3.89,0.09,7.04,0.15,9.22c0.05,2.18,0.04,3.38-0.03,3.39
						c-0.07,0-0.2-1.19-0.37-3.37c-0.18-2.17-0.35-5.33-0.48-9.22c-0.26-7.8-0.2-18.59,0.7-30.47c0.92-11.88,2.5-22.55,3.94-30.22
						c0.72-3.83,1.37-6.92,1.88-9.04C354.55,890.07,354.86,888.9,354.93,888.92z"/>
				</g>
			</g>
			<g>
				<g>
					<path class="st8" d="M383.09,938.2c0.13,0.11-1.27,1.84-3.29,4.81c-2.02,2.96-4.57,7.21-6.77,12.2
						c-2.19,5-3.58,9.76-4.39,13.25c-0.81,3.49-1.14,5.69-1.31,5.67c-0.12-0.01-0.05-2.26,0.59-5.82c0.63-3.56,1.94-8.43,4.16-13.51
						c2.23-5.07,4.93-9.33,7.12-12.21C381.4,939.7,383,938.12,383.09,938.2z"/>
				</g>
			</g>
		</g>
		<g>
			<g>
				<g>
					<path class="st8" d="M728,944.64c0.12-0.07,1.14,1.42,2.61,3.94c1.47,2.52,3.37,6.07,5.26,10.11
						c1.88,4.04,3.39,7.78,4.37,10.52c0.99,2.74,1.48,4.48,1.35,4.53c-0.14,0.05-0.87-1.6-2.03-4.26
						c-1.16-2.67-2.76-6.34-4.63-10.35c-1.87-4.01-3.66-7.6-4.96-10.2C728.67,946.34,727.88,944.72,728,944.64z"/>
				</g>
			</g>
			<g>
				<g>
					<path class="st8" d="M764.4,908.6c0.07,0.02-0.11,0.93-0.5,2.57c-0.43,1.83-0.96,4.15-1.61,6.92
						c-1.32,5.85-2.92,13.98-4.13,23.04c-1.19,9.07-1.76,17.33-2.01,23.32c-0.1,2.84-0.18,5.22-0.25,7.1
						c-0.05,1.68-0.11,2.61-0.18,2.61c-0.07,0-0.14-0.93-0.22-2.61c-0.08-1.68-0.11-4.11-0.08-7.12c0.06-6.01,0.51-14.33,1.71-23.44
						c1.21-9.1,2.94-17.25,4.44-23.07c0.75-2.91,1.41-5.25,1.93-6.86C764.02,909.46,764.34,908.58,764.4,908.6z"/>
				</g>
			</g>
		</g>
		<g>
			<g>
				<g>
					<path class="st8" d="M501.08,924.7c0.05-0.05,0.68,0.44,1.79,1.39c1.12,0.93,2.65,2.39,4.45,4.27
						c3.6,3.76,8.11,9.47,11.92,16.48c3.79,7.02,6.11,13.91,7.3,18.98c0.6,2.54,0.98,4.61,1.15,6.06c0.19,1.44,0.26,2.25,0.19,2.26
						c-0.18,0.03-0.68-3.15-2.04-8.13c-1.36-4.98-3.75-11.74-7.5-18.68c-3.77-6.92-8.12-12.62-11.55-16.47
						C503.35,926.98,500.95,924.83,501.08,924.7z"/>
				</g>
			</g>
			<g>
				<g>
					<path class="st8" d="M535.35,903.65c0.07,0,0.1,1,0.08,2.81c-0.01,2-0.01,4.57-0.02,7.64c0.02,6.45,0.27,15.36,1.11,25.15
						c0.86,9.8,2.16,18.62,3.26,24.97c0.54,3.03,0.99,5.55,1.35,7.52c0.33,1.78,0.47,2.77,0.4,2.78c-0.07,0.02-0.35-0.94-0.8-2.7
						c-0.45-1.75-1.03-4.3-1.67-7.47c-1.28-6.34-2.7-15.18-3.57-25.02c-0.85-9.84-0.99-18.79-0.82-25.25
						c0.08-3.23,0.21-5.85,0.35-7.65C535.17,904.64,535.28,903.64,535.35,903.65z"/>
				</g>
			</g>
			<g>
				<g>
					<path class="st8" d="M565.63,945.59c0.29,0.15-3.12,6.09-5.45,14.12c-2.39,8.01-2.76,14.84-3.08,14.82
						c-0.13-0.01-0.2-1.72,0.04-4.48c0.24-2.76,0.86-6.56,2.05-10.63c1.2-4.06,2.75-7.59,4.04-10.04
						C564.53,946.93,565.52,945.53,565.63,945.59z"/>
				</g>
			</g>
		</g>
		<g>
			<g>
				<g>
					<g>
						<rect x="138.06" y="786.29" class="st9" width="22.98" height="182.34"/>
					</g>
					<g>
						<g>
							<path class="st8" d="M161.04,968.63c0,0-0.02-0.33-0.03-0.95c-0.01-0.66-0.02-1.56-0.03-2.74
								c-0.02-2.43-0.04-5.95-0.07-10.48c-0.04-9.13-0.09-22.3-0.15-38.66c-0.06-32.73-0.13-78.24-0.22-129.51l0.51,0.51
								c-7.34,0-15.1,0-22.97,0h0h0h0h0h0l0.51-0.51c-0.12,79.87-0.23,149.04-0.28,182.34l-0.23-0.23
								c7.42,0.06,13.13,0.1,17.03,0.13c1.92,0.02,3.38,0.04,4.42,0.06C160.51,968.6,161.04,968.63,161.04,968.63
								s-0.47,0.03-1.44,0.05c-1.02,0.01-2.47,0.03-4.36,0.06c-3.93,0.03-9.69,0.07-17.17,0.13l-0.23,0l0-0.24
								c-0.05-33.3-0.16-102.47-0.28-182.34l0.52-0.52h0h0h0h0c7.87,0,15.63,0,22.97,0l0.51,0l0,0.51
								c-0.09,51.41-0.17,97.05-0.22,129.88c-0.06,16.32-0.12,29.45-0.15,38.54c-0.03,4.48-0.05,7.96-0.07,10.37
								c-0.01,1.14-0.03,2.03-0.03,2.67C161.07,968.34,161.04,968.63,161.04,968.63z"/>
						</g>
					</g>
				</g>
				<g class="st10">
					<rect x="138.06" y="790.72" width="22.98" height="7.59"/>
				</g>
				<g>
					<g>
						<rect x="626.73" y="786.29" class="st9" width="22.98" height="182.34"/>
					</g>
					<g>
						<g>
							<path class="st8" d="M649.71,968.63c0,0-0.02-0.33-0.03-0.95c-0.01-0.66-0.02-1.56-0.03-2.74
								c-0.02-2.43-0.04-5.95-0.07-10.48c-0.04-9.13-0.09-22.3-0.15-38.66c-0.06-32.73-0.13-78.24-0.22-129.51l0.51,0.51
								c-7.34,0-15.1,0-22.97,0h-0.01h0h0h0h0l0.52-0.51c-0.12,79.87-0.23,149.04-0.28,182.34l-0.23-0.23
								c7.42,0.06,13.13,0.1,17.03,0.13c1.91,0.02,3.38,0.04,4.42,0.06C649.18,968.6,649.71,968.63,649.71,968.63
								s-0.47,0.03-1.44,0.05c-1.02,0.01-2.47,0.03-4.36,0.06c-3.93,0.03-9.69,0.07-17.17,0.13l-0.23,0l0-0.24
								c-0.05-33.3-0.16-102.47-0.28-182.34l0.52-0.52h0h0h0h0.01c7.87,0,15.63,0,22.97,0l0.51,0l0,0.51
								c-0.09,51.41-0.17,97.05-0.22,129.88c-0.06,16.32-0.12,29.45-0.15,38.54c-0.03,4.48-0.05,7.96-0.07,10.37
								c-0.01,1.14-0.03,2.03-0.03,2.67C649.73,968.34,649.71,968.63,649.71,968.63z"/>
						</g>
					</g>
				</g>
				<g>
					<g>
						<rect x="590.73" y="626.55" class="st9" width="22.98" height="152"/>
					</g>
					<g>
						<g>
							<path class="st8" d="M613.71,778.55c-0.01-0.01-0.02-0.28-0.03-0.8c-0.01-0.56-0.02-1.31-0.03-2.28
								c-0.02-2.04-0.04-4.96-0.07-8.72c-0.04-7.6-0.09-18.56-0.15-32.18c-0.06-27.26-0.13-65.18-0.22-108.03l0.51,0.51
								c-7.35,0-15.1,0-22.97,0c1.01-1.03,0.28-0.26,0.51-0.48v0.05v0.1v0.19v0.38v0.77l0,1.53l0,3.05c0,2.03,0,4.06,0,6.07
								c0,4.03,0,8.02,0,11.97c0,7.9-0.01,15.62-0.01,23.14c-0.02,15.03-0.04,29.24-0.05,42.31c-0.08,26.11-0.15,47.7-0.19,62.39
								l-0.25-0.25c7.37,0.06,13.08,0.11,17,0.14c1.92,0.03,3.39,0.05,4.44,0.06C613.17,778.52,613.71,778.55,613.71,778.55
								s-0.47,0.03-1.45,0.05c-1.03,0.01-2.49,0.03-4.38,0.06c-3.95,0.03-9.71,0.08-17.14,0.14l-0.25,0l0-0.25
								c-0.04-14.7-0.11-36.29-0.19-62.39c-0.02-13.08-0.03-27.28-0.05-42.31c0-7.52-0.01-15.24-0.01-23.14c0-3.95,0-7.94,0-11.97
								c0-2.01,0-4.04,0-6.07l0-3.05v-1.53v-0.77v-0.38v-0.19v-0.1v-0.05c0.23-0.24-0.52,0.47,0.52-0.55c7.87,0,15.62,0,22.97,0
								l0.51,0l0,0.51c-0.09,42.99-0.17,81.04-0.22,108.39c-0.06,13.57-0.11,24.48-0.15,32.06c-0.03,3.71-0.05,6.59-0.07,8.61
								c-0.01,0.94-0.03,1.67-0.03,2.21C613.73,778.32,613.72,778.56,613.71,778.55z"/>
						</g>
					</g>
				</g>
				<g>
					<g>
						<rect x="182.04" y="626.55" class="st9" width="22.98" height="152"/>
					</g>
					<g>
						<g>
							<path class="st8" d="M205.02,778.55c-0.01-0.01-0.02-0.28-0.03-0.8c-0.01-0.56-0.02-1.31-0.03-2.28
								c-0.02-2.04-0.04-4.96-0.07-8.72c-0.04-7.6-0.09-18.56-0.15-32.18c-0.06-27.26-0.13-65.18-0.22-108.03l0.51,0.51
								c-7.35,0-15.1,0-22.97,0c1.01-1.03,0.28-0.26,0.51-0.48v0.05v0.1v0.19v0.38v0.77l0,1.53l0,3.05c0,2.03,0,4.06,0,6.07
								c0,4.03,0,8.02,0,11.97c0,7.9-0.01,15.62-0.01,23.14c-0.02,15.03-0.04,29.24-0.05,42.31c-0.08,26.11-0.15,47.7-0.19,62.39
								l-0.25-0.25c7.37,0.06,13.08,0.11,17,0.14c1.92,0.03,3.39,0.05,4.44,0.06C204.48,778.52,205.02,778.55,205.02,778.55
								s-0.47,0.03-1.45,0.05c-1.03,0.01-2.49,0.03-4.38,0.06c-3.95,0.03-9.71,0.08-17.14,0.14l-0.25,0l0-0.25
								c-0.04-14.7-0.11-36.29-0.19-62.39c-0.02-13.08-0.03-27.28-0.05-42.31c0-7.52-0.01-15.24-0.01-23.14c0-3.95,0-7.94,0-11.97
								c0-2.01,0-4.04,0-6.07l0-3.05v-1.53v-0.77v-0.38v-0.19v-0.1v-0.05c0.23-0.24-0.52,0.47,0.52-0.55c7.87,0,15.62,0,22.97,0
								l0.51,0l0,0.51c-0.09,42.99-0.17,81.04-0.22,108.39c-0.06,13.57-0.11,24.48-0.15,32.06c-0.03,3.71-0.05,6.59-0.07,8.61
								c-0.01,0.94-0.03,1.67-0.03,2.21C205.04,778.32,205.03,778.56,205.02,778.55z"/>
						</g>
					</g>
				</g>
				<g>
					<g>
						<rect x="136.71" y="609.21" class="st9" width="521.32" height="24.33"/>
					</g>
					<g>
						<g>
							<path class="st8" d="M658.04,633.54c0,0-0.02-0.5-0.03-1.48c-0.01-1-0.02-2.48-0.03-4.47c-0.02-4.01-0.05-10.07-0.08-18.37
								l0.14,0.14c-64.11,0.05-273.38,0.19-521.3,0.37h-0.03l0.51-0.51c0,8.34,0,16.63,0,24.33l-0.51-0.51
								c145.12,0.08,275.37,0.16,369.37,0.21c47.03,0.07,84.99,0.12,111.2,0.16c13.11,0.03,23.28,0.06,30.19,0.07
								c3.44,0.02,6.07,0.03,7.86,0.04C657.11,633.52,658.04,633.54,658.04,633.54s-0.88,0.02-2.63,0.04
								c-1.77,0.01-4.38,0.02-7.79,0.04c-6.89,0.02-17.01,0.04-30.07,0.07c-26.19,0.04-64.1,0.09-111.08,0.16
								c-94.09,0.05-224.48,0.13-369.75,0.21l-0.51,0v-0.52c0-7.71,0-16,0-24.33v-0.52h0.52h0.03
								c247.91,0.18,457.19,0.32,521.3,0.37l0.15,0l0,0.15c-0.04,8.34-0.07,14.43-0.08,18.46c-0.01,1.98-0.03,3.45-0.03,4.44
								C658.05,633.08,658.04,633.54,658.04,633.54z"/>
						</g>
					</g>
				</g>
				<g>
					<g>
						<rect x="138.06" y="645.71" class="st9" width="521.32" height="24.33"/>
					</g>
					<g>
						<g>
							<path class="st8" d="M659.39,670.04c0,0-0.02-0.5-0.03-1.48c-0.01-1-0.02-2.48-0.03-4.47c-0.02-4.01-0.05-10.07-0.08-18.37
								l0.14,0.14c-64.11,0.05-273.38,0.19-521.3,0.37h-0.03l0.51-0.51c0,8.34,0,16.63,0,24.33l-0.51-0.51
								c145.12,0.08,275.37,0.16,369.37,0.21c47.03,0.07,84.99,0.12,111.2,0.16c13.11,0.03,23.28,0.06,30.19,0.07
								c3.44,0.02,6.07,0.03,7.86,0.04C658.46,670.01,659.39,670.04,659.39,670.04s-0.88,0.02-2.63,0.04
								c-1.77,0.01-4.38,0.02-7.79,0.04c-6.89,0.02-17.01,0.04-30.07,0.07c-26.19,0.04-64.1,0.09-111.08,0.16
								c-94.09,0.05-224.48,0.13-369.75,0.21l-0.51,0v-0.52c0-7.7,0-15.99,0-24.33v-0.52h0.52h0.03
								c247.91,0.18,457.19,0.32,521.3,0.37h0.15l0,0.15c-0.04,8.34-0.07,14.43-0.08,18.46c-0.01,1.98-0.03,3.45-0.03,4.44
								C659.41,669.58,659.39,670.04,659.39,670.04z"/>
						</g>
					</g>
				</g>
				<g>
					<g>
						<rect x="138.06" y="683.56" class="st9" width="521.32" height="24.33"/>
					</g>
					<g>
						<g>
							<path class="st8" d="M659.39,707.89c0,0-0.02-0.5-0.03-1.48c-0.01-1-0.02-2.48-0.03-4.47c-0.02-4.01-0.05-10.07-0.08-18.37
								l0.14,0.14c-64.11,0.05-273.38,0.19-521.3,0.37h-0.03l0.51-0.52c0,8.34,0,16.63,0,24.33l-0.51-0.51
								c145.12,0.08,275.37,0.16,369.37,0.21c47.03,0.07,84.99,0.12,111.2,0.16c13.11,0.03,23.28,0.06,30.19,0.07
								c3.44,0.02,6.07,0.03,7.86,0.04C658.46,707.86,659.39,707.89,659.39,707.89s-0.88,0.02-2.63,0.04
								c-1.77,0.01-4.38,0.02-7.79,0.04c-6.89,0.02-17.01,0.04-30.07,0.07c-26.19,0.04-64.1,0.09-111.08,0.16
								c-94.09,0.05-224.48,0.13-369.75,0.21l-0.51,0v-0.52c0-7.7,0-16,0-24.33v-0.52h0.52h0.03c247.91,0.18,457.19,0.32,521.3,0.37
								l0.15,0l0,0.15c-0.04,8.34-0.07,14.43-0.08,18.46c-0.01,1.98-0.03,3.45-0.03,4.44C659.41,707.43,659.39,707.89,659.39,707.89
								z"/>
						</g>
					</g>
				</g>
				<g>
					<g>
						<rect x="138.06" y="721.41" class="st9" width="521.32" height="24.33"/>
					</g>
					<g>
						<g>
							<path class="st8" d="M659.39,745.74c0,0-0.02-0.5-0.03-1.48c-0.01-1-0.02-2.48-0.03-4.47c-0.02-4.01-0.05-10.07-0.08-18.37
								l0.14,0.14c-64.11,0.05-273.38,0.19-521.3,0.37h-0.03l0.51-0.52c0,8.34,0,16.63,0,24.33l-0.51-0.51
								c145.12,0.08,275.37,0.16,369.37,0.21c47.03,0.07,84.99,0.12,111.2,0.16c13.11,0.03,23.28,0.06,30.19,0.07
								c3.44,0.02,6.07,0.03,7.86,0.04C658.46,745.71,659.39,745.74,659.39,745.74s-0.88,0.02-2.63,0.04
								c-1.77,0.01-4.38,0.02-7.79,0.04c-6.89,0.02-17.01,0.04-30.07,0.07c-26.19,0.04-64.1,0.09-111.08,0.16
								c-94.09,0.05-224.48,0.13-369.75,0.21l-0.51,0v-0.52c0-7.7,0-15.99,0-24.33v-0.52h0.52h0.03
								c247.91,0.18,457.19,0.32,521.3,0.37h0.15l0,0.15c-0.04,8.34-0.07,14.43-0.08,18.46c-0.01,1.98-0.03,3.45-0.03,4.44
								C659.41,745.28,659.39,745.74,659.39,745.74z"/>
						</g>
					</g>
				</g>
				<g>
					<g>
						<rect x="115.42" y="766.39" class="st9" width="553.45" height="24.33"/>
					</g>
					<g>
						<g>
							<path class="st8" d="M668.87,790.72c0,0-0.02-0.49-0.03-1.48c-0.01-1-0.02-2.47-0.03-4.47c-0.02-4-0.04-10.07-0.08-18.39
								l0.14,0.14c-66.44,0.04-289.21,0.2-553.42,0.37h-0.03l0.51-0.51c0,8.34,0,16.63,0,24.33l-0.51-0.51
								c153.99,0.08,292.28,0.16,392.09,0.21c49.94,0.07,90.24,0.12,118.09,0.16c13.92,0.03,24.72,0.06,32.06,0.07
								c3.66,0.02,6.45,0.03,8.35,0.04C667.88,790.69,668.87,790.72,668.87,790.72s-0.93,0.02-2.79,0.04
								c-1.88,0.01-4.65,0.02-8.28,0.04c-7.31,0.02-18.07,0.04-31.94,0.07c-27.81,0.04-68.08,0.09-117.96,0.16
								c-99.91,0.05-238.33,0.13-392.47,0.21l-0.51,0v-0.52c0-7.7,0-15.99,0-24.33l0-0.52h0.52h0.03
								c264.21,0.18,486.98,0.33,553.42,0.37h0.14l0,0.14c-0.04,8.36-0.06,14.45-0.08,18.47c-0.01,1.98-0.03,3.44-0.03,4.43
								C668.88,790.26,668.87,790.72,668.87,790.72z"/>
						</g>
					</g>
				</g>
				<g class="st10">
					<rect x="626.73" y="790.72" width="22.98" height="7.59"/>
				</g>
			</g>
			<g>
				<g>
					<g>
						<g>
							<g>
								<g>
									<g>
										<g>
											<g>
												<g>
													<path class="st11" d="M369.52,486.37l-4.96,32.04l-12.78,29.16l-18.94-12.09l-6.73-17.02l-5.65-14.27
														c0,0-20,4.81-27.97-13.89c-3.85-9.03-10.25-28.27-15.85-45.75c-6.02-18.8,3.4-39.07,21.66-46.58l1.81-0.75
														c20.02-6.9,37.08,6.25,43.42,26.45L369.52,486.37"/>
												</g>
											</g>
										</g>
									</g>
								</g>
							</g>
						</g>
					</g>
					<g>
						<g>
							<g>
								<g>
									<g>
										<g>
											<g>
												<g>
													<path class="st12" d="M320.44,504.18c0,0,12.28-3.92,21.64-17.05c0,0-0.23,15.91-19.68,21.93L320.44,504.18z"/>
												</g>
											</g>
										</g>
									</g>
								</g>
							</g>
						</g>
					</g>
					<g>
						<g>
							<g>
								<g>
									<g>
										<g>
											<g>
												<g>
													<g>
														<g>
															<g>
																<path class="st8" d="M288.86,458.89c0.53,1.44,2.19,2.17,3.7,1.64c1.51-0.53,2.3-2.12,1.77-3.56
																	c-0.53-1.44-2.19-2.17-3.7-1.65C289.12,455.86,288.33,457.45,288.86,458.89z"/>
															</g>
														</g>
													</g>
												</g>
											</g>
										</g>
									</g>
								</g>
							</g>
						</g>
					</g>
					<g>
						<g>
							<g>
								<g>
									<g>
										<g>
											<g>
												<g>
													<g>
														<g>
															<g>
																<g>
																	<path class="st8" d="M283.78,451.2c0.48,0.21,1.89-2.13,4.78-3.31c2.87-1.22,5.6-0.61,5.77-1.09
																		c0.09-0.22-0.51-0.71-1.71-1c-1.18-0.3-3-0.31-4.8,0.44c-1.79,0.75-3.04,2.03-3.63,3.07
																		C283.59,450.35,283.55,451.11,283.78,451.2z"/>
																</g>
															</g>
														</g>
													</g>
												</g>
											</g>
										</g>
									</g>
								</g>
							</g>
						</g>
					</g>
					<g>
						<g>
							<g>
								<g>
									<g>
										<g>
											<g>
												<g>
													<g>
														<g>
															<g>
																<path class="st8" d="M314.06,447.66c0.53,1.44,2.19,2.17,3.7,1.64c1.51-0.53,2.3-2.12,1.77-3.56
																	c-0.53-1.44-2.19-2.17-3.7-1.65C314.32,444.62,313.52,446.22,314.06,447.66z"/>
															</g>
														</g>
													</g>
												</g>
											</g>
										</g>
									</g>
								</g>
							</g>
						</g>
					</g>
					<g>
						<g>
							<g>
								<g>
									<g>
										<g>
											<g>
												<g>
													<g>
														<g>
															<g>
																<g>
																	<path class="st8" d="M312.23,438.54c0.45,0.26,2.11-1.91,5.11-2.77c2.99-0.9,5.64,0,5.85-0.46
																		c0.11-0.21-0.43-0.76-1.59-1.18c-1.14-0.42-2.95-0.63-4.82-0.08c-1.87,0.55-3.24,1.69-3.94,2.66
																		C312.13,437.68,312.01,438.43,312.23,438.54z"/>
																</g>
															</g>
														</g>
													</g>
												</g>
											</g>
										</g>
									</g>
								</g>
							</g>
						</g>
					</g>
					<g>
						<g>
							<g>
								<g>
									<g>
										<g>
											<g>
												<g>
													<g>
														<g>
															<g>
																<path class="st8" d="M311.41,466.66c-0.05-0.17-1.98,0.26-5.04,1.08c-0.77,0.23-1.53,0.37-1.86-0.08
																	c-0.39-0.46-0.41-1.38-0.41-2.39c-0.04-2.07-0.09-4.24-0.13-6.51c-0.26-9.24-0.77-16.72-1.15-16.71
																	c-0.37,0.01-0.46,7.52-0.2,16.76c0.08,2.27,0.16,4.44,0.24,6.51c0.07,0.95-0.02,2.1,0.81,3.05
																	c0.43,0.47,1.13,0.65,1.66,0.58c0.53-0.05,0.95-0.21,1.32-0.34C309.65,467.56,311.47,466.83,311.41,466.66z"/>
															</g>
														</g>
													</g>
												</g>
											</g>
										</g>
									</g>
								</g>
							</g>
						</g>
					</g>
					<g>
						<g>
							<g>
								<g>
									<g>
										<g>
											<g>
												<path class="st8" d="M306.7,426.25c0.61,0.67,3.34-0.89,6.9-1.88c3.54-1.06,6.68-1.19,6.84-2.08
													c0.06-0.42-0.72-0.96-2.14-1.27c-1.41-0.31-3.45-0.31-5.58,0.3c-2.13,0.61-3.86,1.7-4.88,2.71
													C306.8,425.05,306.43,425.92,306.7,426.25z"/>
											</g>
										</g>
									</g>
								</g>
							</g>
						</g>
					</g>
					<g>
						<g>
							<g>
								<g>
									<g>
										<g>
											<g>
												<path class="st8" d="M279.65,439.84c0.78,0.45,2.49-1.05,4.87-2.07c2.34-1.1,4.6-1.38,4.78-2.26
													c0.07-0.42-0.52-0.94-1.66-1.2c-1.13-0.26-2.79-0.17-4.42,0.56c-1.62,0.73-2.8,1.91-3.36,2.92
													C279.3,438.82,279.3,439.61,279.65,439.84z"/>
											</g>
										</g>
									</g>
								</g>
							</g>
						</g>
					</g>
					<g>
						<g>
							<g>
								<g>
									<g>
										<g>
											<g>
												<g>
													<g>
														<g>
															<g>
																<g>
																	<g>
																		<g>
																			<g>
																				<g>
																					<g>
																						<g>
																							<g>
																								<g>
																									<g>
																										<g>
																											<path class="st11" d="M347.73,438.22c0.26-0.27,11.34-9.13,16.22,3.89c4.88,13.02-9.2,15.23-9.36,14.86
																												C354.43,456.61,347.73,438.22,347.73,438.22z"/>
																										</g>
																									</g>
																								</g>
																							</g>
																						</g>
																					</g>
																				</g>
																			</g>
																		</g>
																	</g>
																</g>
															</g>
														</g>
													</g>
												</g>
											</g>
										</g>
									</g>
								</g>
							</g>
						</g>
						<g>
							<g>
								<g>
									<g>
										<g>
											<g>
												<g>
													<g>
														<g>
															<g>
																<g>
																	<g>
																		<g>
																			<g>
																				<g>
																					<g>
																						<g>
																							<g>
																								<g>
																									<g>
																										<g>
																											<g>
																												<path class="st12" d="M356.72,450.55c0.04-0.06,0.29,0.07,0.74,0.11c0.44,0.03,1.12-0.09,1.71-0.6
																													c1.19-1.02,1.53-3.64,0.71-6.01c-0.41-1.2-1.08-2.23-1.85-3.01c-0.75-0.8-1.62-1.24-2.36-1.1
																													c-0.75,0.1-1.08,0.7-1.11,1.12c-0.04,0.43,0.14,0.66,0.08,0.71c-0.02,0.05-0.36-0.11-0.46-0.69
																													c-0.04-0.28-0.01-0.64,0.21-1.01c0.22-0.37,0.63-0.67,1.13-0.8c1.03-0.31,2.28,0.28,3.13,1.13
																													c0.9,0.84,1.68,1.99,2.15,3.33c0.9,2.65,0.48,5.61-1.2,6.86c-0.83,0.58-1.69,0.59-2.2,0.43
																													C356.86,450.86,356.68,450.59,356.72,450.55z"/>
																											</g>
																										</g>
																									</g>
																								</g>
																							</g>
																						</g>
																					</g>
																				</g>
																			</g>
																		</g>
																	</g>
																</g>
															</g>
														</g>
													</g>
												</g>
											</g>
										</g>
									</g>
								</g>
							</g>
						</g>
					</g>
					<g>
						<g>
							<g>
								<g>
									<g>
										<g>
											<g>
												<path class="st8" d="M265.53,423.47c-0.46-2.72,0.4-5.86,2.77-7.28c-2.05-1.96-2.5-5.38-1.04-7.82
													c1.46-2.43,4.69-3.64,7.39-2.76c-1.77-3.85,1.74-8.99,5.98-8.74c-1.07-2.21-0.41-5.13,1.51-6.67
													c1.92-1.54,4.91-1.54,6.84,0c0.79-5.72,8.06-9.42,13.15-6.71c4.37-3.94,11.85-3.75,16.01,0.41
													c4.29-1.51,9.44-0.07,12.33,3.44c2.79-0.89,6.02-0.18,8.18,1.79c2.16,1.97,3.17,5.12,2.55,7.98
													c3.9,0.23,6.69,5.1,4.92,8.57c2.29,0.15,4.43,1.71,5.27,3.85c0.84,2.13,0.35,4.74-1.22,6.41
													c1.99-0.55,3.77,1.64,3.96,3.7c0.19,2.05-0.58,4.08-0.61,6.14c-0.02,1.7,0.46,3.37,0.54,5.06
													c0.15,3.19-1.2,6.41-3.57,8.55c0.16,0.08,0.33,0.17,0.49,0.25c1.01,1.51-0.82,3.59-2.63,3.57
													c-1.82-0.02-3.36-1.25-4.84-2.31c-1.69-1.21-3.55-2.29-4.78-3.97c-1.24-1.68-1.66-4.19-0.31-5.78
													c-2.52,0.18-4.89-1.49-6.25-3.62c-1.37-2.13-1.93-4.66-2.47-7.13c-0.79-3.65-1.59-7.29-2.38-10.94
													c-4.7,1.8-10.39,0.71-14.09-2.72c-2.27,3.94-8.41,4.87-11.74,1.78c0.41,5.22-3.99,10.33-9.21,10.71
													c1.6,2.45-2.15,6.89-4.48,8.66c-2.33,1.78-6.37,1.28-6.37,1.28s-3.4,4.51-6.27,4.54c-2.81,0.03-7.35-1.73-6.81-4.92
													C268.36,428.83,265.99,426.19,265.53,423.47z"/>
											</g>
										</g>
									</g>
								</g>
							</g>
						</g>
					</g>
					<g>
						<g>
							<g>
								<g>
									<g>
										<g>
											<g>
												<g>
													<path class="st9" d="M346.76,405.4c-0.14,0.01,0.16,0.97-0.59,2.18c-0.37,0.58-1.04,1.16-1.95,1.24
														c-0.89,0.1-1.99-0.29-2.57-1.16l-0.47-0.71l-0.38,0.77c-0.54,1.11-1.87,2.03-3.3,2.01c-1.61-0.02-3.03-1.26-3.4-2.59
														l-0.22-0.79l-0.58,0.58c-0.73,0.73-1.74,1.06-2.61,1.05c-0.88,0-1.62-0.35-2.15-0.74c-1.07-0.81-1.31-1.67-1.43-1.61
														c-0.08-0.01-0.05,0.97,1.05,2.06c0.55,0.52,1.4,1.02,2.49,1.1c1.07,0.08,2.33-0.25,3.31-1.17l-0.8-0.22
														c0.44,1.74,2.16,3.33,4.32,3.38c1.89,0.01,3.52-1.16,4.19-2.64l-0.85,0.07c0.89,1.22,2.34,1.63,3.5,1.43
														c1.2-0.2,2-1.04,2.36-1.77C347.41,406.32,346.81,405.32,346.76,405.4z"/>
												</g>
											</g>
										</g>
									</g>
								</g>
							</g>
						</g>
					</g>
					<g>
						<g>
							<g>
								<g>
									<g>
										<g>
											<g>
												<g>
													<path class="st9" d="M353.77,416.91c-0.1-0.05-0.31,0.55-1.15,1.11c-0.77,0.53-2.47,1-3.79-0.04l-0.44-0.34l-0.2,0.53
														c-0.4,1.06-1.51,2.08-2.9,2.27c-1.35,0.21-2.99-0.6-3.64-2.01l-0.39-0.83l-0.52,0.76c-0.12,0.18-0.29,0.36-0.48,0.51
														c-0.85,0.69-2.14,0.78-2.95,0.2c-0.85-0.56-1.29-1.63-1.16-2.51l0.15-0.99l-0.85,0.51c-1.05,0.63-2.28,0.74-3.26,0.5
														c-1-0.23-1.75-0.8-2.26-1.37c-1.01-1.16-1.09-2.16-1.22-2.12c-0.07-0.02-0.21,1.05,0.78,2.47
														c0.49,0.68,1.32,1.42,2.49,1.76c1.15,0.35,2.61,0.3,3.94-0.44l-0.7-0.48c-0.22,1.26,0.33,2.69,1.52,3.51
														c1.21,0.85,2.98,0.74,4.18-0.23c0.27-0.22,0.51-0.48,0.69-0.75l-0.91-0.07c0.89,1.87,2.95,2.84,4.73,2.53
														c1.79-0.3,3.08-1.61,3.52-2.96l-0.64,0.18c0.88,0.65,1.9,0.75,2.7,0.62c0.81-0.12,1.44-0.49,1.88-0.85
														C353.76,417.61,353.82,416.91,353.77,416.91z"/>
												</g>
											</g>
										</g>
									</g>
								</g>
							</g>
						</g>
					</g>
					<g>
						<g>
							<g>
								<g>
									<g>
										<g>
											<g>
												<g>
													<path class="st9" d="M282.16,395.82c0.08,0.04,0.2-0.68,1.1-1.43c0.45-0.36,1.11-0.69,1.92-0.67
														c0.79,0.02,1.74,0.4,2.33,1.21l0.48,0.66l0.11-0.82c0.2-1.46,1.27-3.12,3.04-3.85c1.72-0.74,4.19-0.25,5.57,1.48
														l0.59,0.74l0.25-0.92c0.46-1.69,1.8-3.23,3.56-3.97c1.75-0.76,3.94-0.49,5.61,0.68c0.68,0.46,1.25,1.07,1.67,1.74
														l0.3,0.48l0.46-0.34c2.23-1.64,5.51-1.36,7.31,0.34c1.85,1.7,2.3,4.43,1.57,6.38l-0.28,0.73l0.76-0.17
														c1.82-0.4,3.6,0.06,4.87,0.87c1.29,0.81,2.06,1.96,2.48,2.96c0.83,2.06,0.47,3.4,0.61,3.39
														c0.03,0.01,0.15-0.3,0.2-0.91c0.05-0.61,0.03-1.54-0.36-2.65c-0.38-1.09-1.15-2.4-2.55-3.36
														c-1.37-0.95-3.33-1.53-5.42-1.13l0.48,0.56c0.9-2.26,0.46-5.35-1.69-7.4c-2.14-2.04-5.9-2.41-8.6-0.46l0.76,0.15
														c-0.5-0.81-1.17-1.52-1.96-2.06c-1.93-1.36-4.53-1.68-6.6-0.76c-2.06,0.88-3.58,2.67-4.1,4.66l0.84-0.18
														c-1.72-2.08-4.61-2.57-6.65-1.64c-2.06,0.92-3.2,2.85-3.37,4.54l0.59-0.15c-0.78-0.99-1.92-1.37-2.86-1.34
														c-0.96,0.03-1.7,0.48-2.15,0.91c-0.46,0.45-0.69,0.9-0.79,1.21C282.14,395.65,282.13,395.82,282.16,395.82z"/>
												</g>
											</g>
										</g>
									</g>
								</g>
							</g>
						</g>
					</g>
				</g>
				<g>
					<g>
						<g>
							<g>
								<g>
									<g>
										<g>
											<g>
												<g>
													<g>
														<g>
															<path class="st8" d="M320,463.51c-0.48,0.17,0.8,3.3-0.96,6.63c-1.76,3.33-5.25,4.36-5.09,4.81
																c0.04,0.21,1,0.3,2.42-0.24c1.4-0.52,3.24-1.8,4.32-3.83c1.08-2.04,1.03-4.15,0.61-5.48
																C320.87,464.04,320.21,463.4,320,463.51z"/>
														</g>
													</g>
												</g>
											</g>
										</g>
									</g>
								</g>
							</g>
						</g>
					</g>
				</g>
			</g>
			<g>
				<g>
					<path class="st7" d="M300.72,520.49l-15.68,44.15l3.62,48.27l9.99,83.39c0,0,36.74-12.41,38.39-11.17
						c1.65,1.24-16.25-84.54-16.25-84.54l12.95-69.79l-0.84-20.55L300.72,520.49z"/>
				</g>
				<g>
					<path class="st6" d="M300.72,520.49l-17.25,39.59l-35.53,13.98l-37.41,11.5l5.33,26.81c1.09,5.49,6.6,8.92,12.01,7.47
						l31.52-8.46l29.37-1.35l15.27-35.49L300.72,520.49z"/>
				</g>
				<g>
					<path class="st11" d="M222.81,574.55l2.61-3.24c0,0,4.83-0.02,7.44,1.62c2.61,1.64,6.66,7.65,7.18,10.78
						c0.52,3.13,0,9.14,0,9.14l-17.89-18.3"/>
				</g>
				<g>
					<path class="st8" d="M188.09,555.32c0,0.54,33.58,36.17,33.58,36.17l6.32,6.24h20.31l-39.18-43.49l-16.89-2.88L188.09,555.32z"
						/>
				</g>
				<g>
					<g>
						<path class="st8" d="M324.49,634.47c-0.03,0.02-0.3-0.41-0.77-1.25c-0.51-0.93-1.17-2.15-2-3.68
							c-1.7-3.22-4.11-7.9-6.91-13.77c-2.78-5.88-6.05-12.91-8.91-21.06c-0.68-2.05-1.37-4.16-1.84-6.39
							c-0.32-1.09-0.35-2.29-0.53-3.45c-0.04-1.15-0.08-2.32-0.09-3.49c-0.05-4.69,0.06-9.54,0.25-14.5
							c0.23-6.28,0.56-12.36,0.93-18.14l0.02-0.3l0.28-0.12c3.61-1.58,7.09-3.11,10.42-4.57l0.13,0.9c-2.78-0.36-5.45-0.7-8.01-1.04
							l-0.66-0.08l0.33-0.57c5.13-8.84,9.42-16.21,12.48-21.49c1.49-2.5,2.67-4.5,3.55-5.97c0.39-0.62,0.7-1.14,0.96-1.55
							c0.22-0.35,0.35-0.52,0.37-0.51c0.02,0.01-0.07,0.21-0.25,0.58c-0.23,0.44-0.51,0.97-0.85,1.62c-0.82,1.5-1.94,3.54-3.34,6.09
							c-2.99,5.32-7.16,12.76-12.16,21.67l-0.33-0.65c2.56,0.31,5.23,0.64,8.02,0.97l1.68,0.2l-1.55,0.69
							c-3.32,1.48-6.79,3.02-10.39,4.62l0.3-0.42c-0.35,5.77-0.67,11.85-0.9,18.11c-0.18,4.95-0.31,9.79-0.27,14.45
							c0,1.17,0.04,2.32,0.08,3.46c0.17,1.11,0.18,2.21,0.49,3.29c0.45,2.17,1.12,4.26,1.78,6.29c2.78,8.09,5.98,15.15,8.67,21.06
							c2.71,5.9,5.02,10.63,6.61,13.9c0.76,1.56,1.37,2.81,1.83,3.77C324.32,634,324.52,634.46,324.49,634.47z"/>
					</g>
				</g>
				<g>
					<path class="st11" d="M207.92,574.55c0,0-5.09,3.68-4.96,5.77c0.13,2.09,1.3,4.31,2.48,4.7c1.18,0.39,4.7,2.22,4.7,2.22
						s-3.13,3-2.22,6.14c0.91,3.13,3,3.92,3,3.92s0.13,4.05,1.31,6.4c1.18,2.35,4.96,3.13,4.96,3.13s2.09,4.26,3.92,6.37
						c1.83,2.11,5.48,2.77,5.48,2.77s4.7,0.52,7.18-1.18c2.48-1.7,5.22-3.4,5.35-9.14c0,0,11.23-5.61,11.36-8.49
						c0.13-2.87-1.18-3.79-1.18-3.79l-5.61,1.04c0,0-0.78-3-2.48-3.26c-1.7-0.26-22.2,4.7-22.2,4.7s13.97-2.22,14.36-4.96
						c0.39-2.74,0.52-5.09-1.57-5.61c-2.09-0.52-16.97,1.07-16.97,1.07l-0.78-2.64c0,0,4.04,0.13,4.04-3.4
						c0-3.53-2.22-4.31-2.22-4.31L207.92,574.55z"/>
				</g>
				<g>
					<polygon class="st13" points="324.49,513.44 326.21,527.07 315.65,586.35 326.35,637.54 381.83,653.93 403.65,644.53 
						396.2,500.84 376.38,486.92 368.76,481.8 340.18,525.05 					"/>
				</g>
				<g>
					<path class="st7" d="M374.76,485.83l13.86,6.19l49.11,6.6l26.49,139.32l3.33,16l50.78,75.99c2.33,3.49,1.22,8.22-2.42,10.29
						l-41.6,23.77c-3.19,1.63-7.1,0.61-9.09-2.38l-52.86-79.65l-26.21-33.54c0,0-15.68-47.45-17.74-67.67
						c-2.06-20.22-1.18-41.88,0-53.23C369.66,515.36,374.76,485.83,374.76,485.83z"/>
				</g>
				<g>
					<path class="st6" d="M437.72,498.62c6.48,3.4,11.05,9.57,12.4,16.76c3.12,16.54,12.55,45.38,16.08,76.18
						c4.94,43.09-6.64,56.39-12.11,63.82c-5.35,7.27-39.34,23.24-39.34,23.24l-25.46-33.93l28.2-23.1l-2.48-59.83
						c0,0-9.9-13.62-4.95-33.84C415.03,507.7,429.47,497.38,437.72,498.62L437.72,498.62z"/>
				</g>
				<g class="st10">
					<g>
						<path d="M464,636.8c-3.86,10.46-8.27,19.28-17.26,24.25c-9.56,5.29-22.88,12.77-31.97,17.57l6.66,10.32
							c10.43-1.6,29.65-13.75,35.92-22.23C463.62,658.23,465.51,647.23,464,636.8z"/>
					</g>
				</g>
				<g>
					<g>
						<path class="st8" d="M414.34,564.93c0.02,0,0.08,0.3,0.18,0.89c0.11,0.64,0.25,1.52,0.44,2.64c0.37,2.38,0.9,5.79,1.58,10.17
							c1.33,8.89,3.25,21.68,5.62,37.5l0.03,0.2l-0.15,0.13c-9.38,8.26-20.36,17.95-32.42,28.58l0.07-0.63
							c7.84,10.43,16.46,21.88,25.49,33.9l-0.63-0.15c8.47-4.27,17.22-8.89,25.9-14.02c2.46-1.48,4.9-2.97,7.24-4.56
							c2.35-1.56,4.64-3.24,6.57-5.15c3.49-4.2,6.13-9.18,8.05-14.17c3.86-10.1,4.83-20.68,4.75-30.6
							c-0.14-9.96-1.32-19.38-2.7-28.14c-1.37-8.76-2.95-16.88-4.51-24.27c-3.12-14.77-6.11-26.62-8.22-34.8
							c-1.06-4.04-1.89-7.2-2.47-9.4c-0.27-1.04-0.49-1.85-0.64-2.45c-0.14-0.55-0.21-0.84-0.19-0.84c0,0,0.12,0.27,0.29,0.81
							c0.18,0.59,0.43,1.39,0.74,2.42c0.64,2.13,1.54,5.28,2.66,9.36c2.23,8.15,5.33,19.98,8.54,34.75
							c1.61,7.38,3.23,15.5,4.64,24.29c1.41,8.77,2.63,18.23,2.8,28.26c0.11,9.99-0.84,20.69-4.76,30.97
							c-1.98,5.12-4.57,10.08-8.25,14.51c-2.05,2.04-4.36,3.72-6.74,5.31c-2.37,1.61-4.82,3.11-7.29,4.59
							c-8.72,5.15-17.48,9.77-25.97,14.05l-0.38,0.19l-0.25-0.34c-9.01-12.03-17.6-23.51-25.42-33.95l-0.26-0.35l0.32-0.28
							c12.11-10.58,23.14-20.22,32.55-28.44l-0.12,0.33c-2.23-15.83-4.04-28.64-5.29-37.54c-0.6-4.39-1.06-7.81-1.38-10.2
							c-0.14-1.13-0.25-2.01-0.33-2.65C414.35,565.24,414.32,564.93,414.34,564.93z"/>
					</g>
				</g>
				<g>
					<g>
						<path class="st8" d="M378.47,616.05c-0.04-0.01,0-0.48,0.11-1.38c0.13-1,0.3-2.3,0.51-3.92c0.5-3.52,1.2-8.4,2.06-14.39
							c1.73-12.15,4.44-28.88,7.07-47.42c1.22-8.97,2.39-17.53,3.45-25.33l0.3,0.51c-2.92-1.12-5.72-2.2-8.39-3.22l-0.81-0.31
							l0.73-0.47c3.01-1.95,5.83-3.77,8.43-5.46l-0.17,0.38c-1-7-1.82-12.72-2.41-16.82c-0.25-1.91-0.45-3.44-0.6-4.59
							c-0.13-1.05-0.17-1.61-0.13-1.62c0.04-0.01,0.16,0.54,0.36,1.58c0.2,1.15,0.47,2.67,0.8,4.56c0.67,4.09,1.6,9.79,2.75,16.76
							l0.04,0.24l-0.21,0.14c-2.58,1.71-5.38,3.57-8.37,5.55l-0.09-0.78c2.67,1,5.48,2.06,8.41,3.16l0.35,0.13l-0.05,0.38
							c-1.04,7.8-2.18,16.36-3.38,25.34c-2.63,18.54-5.45,35.27-7.37,47.39c-0.99,5.97-1.8,10.84-2.39,14.34
							c-0.29,1.61-0.52,2.9-0.7,3.89C378.61,615.59,378.51,616.06,378.47,616.05z"/>
					</g>
				</g>
				<g>
					<g>
						<path class="st8" d="M430.28,500.49c0.12,0.17-2.4,1.9-5.77,5.41c-1.7,1.74-3.53,4-5.35,6.65c-1.77,2.69-3.49,5.78-4.91,9.21
							c-1.38,3.44-2.32,6.86-2.94,10.02c-0.55,3.17-0.83,6.06-0.83,8.5c-0.05,4.87,0.54,7.87,0.34,7.91
							c-0.07,0.01-0.24-0.73-0.5-2.08c-0.14-0.68-0.28-1.51-0.35-2.49c-0.08-0.98-0.24-2.09-0.21-3.33
							c-0.09-2.47,0.11-5.43,0.63-8.66c0.58-3.22,1.51-6.72,2.92-10.24c1.45-3.5,3.24-6.65,5.08-9.35c1.9-2.67,3.82-4.92,5.62-6.63
							c0.85-0.9,1.74-1.59,2.48-2.23c0.73-0.65,1.42-1.15,1.99-1.53C429.6,500.84,430.24,500.43,430.28,500.49z"/>
					</g>
				</g>
				<g>
					<g>
						<path class="st8" d="M288.45,610.06c-0.28,0.02-1.19-9.58-2.03-21.44c-0.84-11.87-1.29-21.5-1-21.52
							c0.28-0.02,1.19,9.58,2.03,21.45C288.29,600.4,288.74,610.04,288.45,610.06z"/>
					</g>
				</g>
				<g>
					<g>
						<polygon class="st14" points="455.71,697.4 463.33,712.96 498.6,690.38 486.39,676.56 						"/>
					</g>
					<g>
						<g>
							<path class="st8" d="M455.71,697.4c-0.05-0.01,0.69-0.57,2.12-1.59c1.55-1.1,3.64-2.57,6.22-4.38
								c5.54-3.83,13.17-9.11,22.08-15.27l0.35-0.24l0.28,0.32c3.78,4.27,7.92,8.93,12.24,13.8l0.4,0.45l-0.51,0.32
								c-0.49,0.31-1.01,0.65-1.54,0.99c-13.12,8.33-25.01,15.88-33.81,21.46l-0.35,0.22l-0.18-0.37c-2.26-4.79-4.1-8.71-5.45-11.57
								c-0.58-1.26-1.05-2.29-1.42-3.1C455.82,697.75,455.67,697.39,455.71,697.4c0.03,0.01,0.25,0.39,0.63,1.1
								c0.42,0.81,0.96,1.83,1.62,3.09c1.41,2.77,3.34,6.57,5.7,11.21l-0.53-0.15c8.76-5.65,20.59-13.29,33.65-21.71
								c0.53-0.34,1.06-0.68,1.54-0.99l-0.11,0.77c-4.3-4.89-8.42-9.57-12.19-13.85l0.63,0.08c-8.91,5.94-16.55,11.04-22.09,14.73
								c-2.67,1.75-4.84,3.17-6.45,4.22c-0.7,0.44-1.28,0.81-1.76,1.12C455.96,697.27,455.73,697.4,455.71,697.4z"/>
						</g>
					</g>
				</g>
				<g class="st10">
					<path d="M456.05,698.09c0.15,0.3,7.83,23.89,7.83,23.89l32.9-23.36l-2.83-5.27l-30.62,19.6L456.05,698.09z"/>
				</g>
				<g class="st10">
					<path d="M389.62,498.52l5.84,19.28l-5.84,2.69l7.8,3.84c0,0-12.3,67.26-13.85,73.4c-1.55,6.14-3.43,8.11-3.43,8.11l12.01-82.16
						l-8.4-3.19l8.4-5.51L389.62,498.52z"/>
				</g>
				<g>
					<g>
						<path class="st8" d="M259.45,603.63c-0.34,0.01,0.29-6.37-2.23-13.64c-2.43-7.31-6.81-11.98-6.53-12.18
							c0.09-0.08,1.29,0.96,2.85,3c1.56,2.03,3.39,5.13,4.66,8.85c1.26,3.73,1.69,7.3,1.69,9.86
							C259.89,602.08,259.57,603.64,259.45,603.63z"/>
					</g>
				</g>
				<g class="st10">
					<g>
						<path d="M285.19,565.19c-5.87,14.63-3.75,30.68,3.12,44.86C287.25,593.74,286.62,581.02,285.19,565.19z"/>
					</g>
				</g>
				<g>
					<g>
						<path class="st8" d="M370.56,498.02c0.06,0.04-0.32,0.73-1.04,1.94c-0.84,1.4-1.86,3.12-3.06,5.13
							c-2.56,4.34-5.98,10.41-9.36,17.32c-2.29,4.65-4.25,9.09-5.84,12.86l-0.23,0.54l-0.45-0.36c-3.24-2.59-5.71-5.02-7.36-6.79
							c-1.64-1.77-2.47-2.87-2.41-2.93c0.08-0.07,1.04,0.91,2.78,2.57c1.74,1.65,4.27,3.96,7.53,6.45l-0.68,0.18
							c1.52-3.82,3.44-8.31,5.74-12.98c3.39-6.94,6.93-12.99,9.66-17.25c1.37-2.13,2.52-3.82,3.35-4.97
							C370.01,498.59,370.5,497.98,370.56,498.02z"/>
					</g>
				</g>
				<g>
					<g>
						<path class="st8" d="M338.07,525.35c0.26,0.1-1.21,4.57-3.3,10.07l-0.26,0.69l-0.56-0.49c-0.08-0.07-0.17-0.15-0.26-0.22
							c-4.59-4-7.54-7.99-7.33-8.15c0.23-0.19,3.49,3.44,8,7.38c0.09,0.08,0.17,0.15,0.25,0.22l-0.82,0.21
							C335.92,529.56,337.81,525.25,338.07,525.35z"/>
					</g>
				</g>
				<g>
					<g>
						<path class="st8" d="M343.88,626.55c-0.04,0-0.09-0.33-0.15-0.97c-0.07-0.76-0.15-1.68-0.24-2.79
							c-0.17-2.58-0.41-6.05-0.69-10.26c-0.53-8.66-1.15-20.64-1.67-33.87c-0.51-13.24-0.81-25.23-0.81-33.92
							c-0.01-4.34,0.05-7.86,0.14-10.28c0.06-1.11,0.1-2.04,0.14-2.79c0.04-0.64,0.08-0.97,0.12-0.97c0.04,0,0.06,0.34,0.09,0.98
							c0.01,0.76,0.03,1.68,0.05,2.79c0.05,2.58,0.11,6.06,0.19,10.27c0.19,8.67,0.6,20.65,1.11,33.89
							c0.53,13.15,1.02,25.06,1.37,33.88c0.15,4.22,0.27,7.69,0.36,10.27c0.02,1.11,0.04,2.04,0.05,2.8
							C343.93,626.21,343.91,626.54,343.88,626.55z"/>
					</g>
				</g>
			</g>
			<g>
				<g>
					<path class="st15" d="M193.35,699.33"/>
				</g>
			</g>
			<g>
				<g>
					<g>
						<g>
							<g>
								<g>
									<g>
										<g>
											<g>
												<g>
													<g>
														<g>
															<g>
																<g>
																	<g>
																		<g>
																			<g>
																				<path class="st6" d="M228.06,893.71l5.12,48.31c0,0-47.38,21.43-47.31,30.45l94.02-6.56L275,890.3
																					L228.06,893.71z"/>
																			</g>
																		</g>
																	</g>
																</g>
															</g>
														</g>
													</g>
												</g>
											</g>
										</g>
									</g>
								</g>
							</g>
						</g>
					</g>
					<g>
						<g>
							<g>
								<g>
									<g>
										<g>
											<g>
												<g>
													<g>
														<g>
															<g>
																<g>
																	<g>
																		<g>
																			<g>
																				<g>
																					<path class="st16" d="M261.96,935.91c1.85,0.37,3.25,2.33,2.96,4.2c-0.29,1.87-2.27,3.31-4.13,2.97
																						c-1.86-0.34-3.61-2.64-3.11-4.46c0.5-1.82,2.92-3.39,4.64-2.61"/>
																				</g>
																			</g>
																		</g>
																	</g>
																</g>
															</g>
														</g>
													</g>
												</g>
											</g>
										</g>
									</g>
								</g>
							</g>
						</g>
					</g>
					<g>
						<g>
							<g>
								<g>
									<g>
										<g>
											<g>
												<g>
													<g>
														<g>
															<g>
																<g>
																	<g>
																		<g>
																			<g>
																				<path class="st16" d="M280.1,967.88l-0.47-7.32l-90.38,6.89c0,0-4.06,2.11-3.38,5.03L280.1,967.88z"/>
																			</g>
																		</g>
																	</g>
																</g>
															</g>
														</g>
													</g>
												</g>
											</g>
										</g>
									</g>
								</g>
							</g>
						</g>
					</g>
					<g>
						<g>
							<g>
								<g>
									<g>
										<g>
											<g>
												<g>
													<g>
														<g>
															<g>
																<g>
																	<g>
																		<g>
																			<g>
																				<g>
																					<path class="st8" d="M231.62,941.65c0.05,0.46,2.36,0.51,4.72,1.82c2.4,1.26,3.7,3.16,4.11,2.95
																						c0.42-0.12-0.46-2.82-3.35-4.36C234.23,940.49,231.49,941.23,231.62,941.65z"/>
																				</g>
																			</g>
																		</g>
																	</g>
																</g>
															</g>
														</g>
													</g>
												</g>
											</g>
										</g>
									</g>
								</g>
							</g>
						</g>
					</g>
					<g>
						<g>
							<g>
								<g>
									<g>
										<g>
											<g>
												<g>
													<g>
														<g>
															<g>
																<g>
																	<g>
																		<g>
																			<g>
																				<g>
																					<path class="st8" d="M222.04,946.41c-0.07,0.45,1.97,1.09,3.66,2.93c1.75,1.78,2.29,3.86,2.74,3.8
																						c0.44,0.04,0.57-2.67-1.58-4.91C224.74,945.98,222.02,945.97,222.04,946.41z"/>
																				</g>
																			</g>
																		</g>
																	</g>
																</g>
															</g>
														</g>
													</g>
												</g>
											</g>
										</g>
									</g>
								</g>
							</g>
						</g>
					</g>
					<g>
						<g>
							<g>
								<g>
									<g>
										<g>
											<g>
												<g>
													<g>
														<g>
															<g>
																<g>
																	<g>
																		<g>
																			<g>
																				<g>
																					<path class="st8" d="M217.26,958.61c0.42,0.07,0.9-2.27-0.45-4.7c-1.34-2.44-3.57-3.28-3.74-2.89
																						c-0.23,0.4,1.26,1.65,2.34,3.66C216.54,956.67,216.81,958.59,217.26,958.61z"/>
																				</g>
																			</g>
																		</g>
																	</g>
																</g>
															</g>
														</g>
													</g>
												</g>
											</g>
										</g>
									</g>
								</g>
							</g>
						</g>
					</g>
					<g>
						<g>
							<g>
								<g>
									<g>
										<g>
											<g>
												<g>
													<g>
														<g>
															<g>
																<g>
																	<g>
																		<g>
																			<g>
																				<g>
																					<path class="st8" d="M231.67,930.51c0.22,0.41,2.28-0.38,4.89-0.38c2.61-0.06,4.69,0.67,4.9,0.26
																						c0.24-0.35-1.85-1.91-4.92-1.86C233.47,928.55,231.42,930.16,231.67,930.51z"/>
																				</g>
																			</g>
																		</g>
																	</g>
																</g>
															</g>
														</g>
													</g>
												</g>
											</g>
										</g>
									</g>
								</g>
							</g>
						</g>
					</g>
				</g>
				<g>
					<g>
						<g>
							<g>
								<g>
									<g>
										<g>
											<g>
												<g>
													<g>
														<g>
															<g>
																<g>
																	<g>
																		<g>
																			<g>
																				<path class="st6" d="M211.31,698.78l-43.55,21.53c0,0-36.51-37.03-44.95-33.83l38.72,85.93l69.23-30.77
																					L211.31,698.78z"/>
																			</g>
																		</g>
																	</g>
																</g>
															</g>
														</g>
													</g>
												</g>
											</g>
										</g>
									</g>
								</g>
							</g>
						</g>
					</g>
					<g>
						<g>
							<g>
								<g>
									<g>
										<g>
											<g>
												<g>
													<g>
														<g>
															<g>
																<g>
																	<g>
																		<g>
																			<g>
																				<g>
																					<path class="st16" d="M183.46,745.21c0.29,1.87-1.06,3.86-2.91,4.23c-1.85,0.37-3.89-0.99-4.22-2.85
																						c-0.33-1.86,1.22-4.3,3.11-4.46c1.88-0.16,4.19,1.56,4.06,3.45"/>
																				</g>
																			</g>
																		</g>
																	</g>
																</g>
															</g>
														</g>
													</g>
												</g>
											</g>
										</g>
									</g>
								</g>
							</g>
						</g>
					</g>
					<g>
						<g>
							<g>
								<g>
									<g>
										<g>
											<g>
												<g>
													<g>
														<g>
															<g>
																<g>
																	<g>
																		<g>
																			<g>
																				<path class="st16" d="M159.76,773.29l6.71-2.97l-37.76-82.4c0,0-3.39-3.08-5.89-1.43L159.76,773.29z"/>
																			</g>
																		</g>
																	</g>
																</g>
															</g>
														</g>
													</g>
												</g>
											</g>
										</g>
									</g>
								</g>
							</g>
						</g>
					</g>
					<g>
						<g>
							<g>
								<g>
									<g>
										<g>
											<g>
												<g>
													<g>
														<g>
															<g>
																<g>
																	<g>
																		<g>
																			<g>
																				<g>
																					<path class="st8" d="M167.58,718.72c-0.41,0.2,0.34,2.39-0.08,5.06c-0.35,2.68-1.69,4.57-1.35,4.88
																						c0.26,0.35,2.48-1.41,2.93-4.65C169.56,720.77,167.92,718.46,167.58,718.72z"/>
																				</g>
																			</g>
																		</g>
																	</g>
																</g>
															</g>
														</g>
													</g>
												</g>
											</g>
										</g>
									</g>
								</g>
							</g>
						</g>
					</g>
					<g>
						<g>
							<g>
								<g>
									<g>
										<g>
											<g>
												<g>
													<g>
														<g>
															<g>
																<g>
																	<g>
																		<g>
																			<g>
																				<g>
																					<path class="st8" d="M159.79,711.39c-0.45,0.09-0.34,2.23-1.48,4.45c-1.07,2.26-2.82,3.48-2.62,3.89
																						c0.11,0.42,2.7-0.39,4.06-3.19C161.13,713.77,160.19,711.22,159.79,711.39z"/>
																				</g>
																			</g>
																		</g>
																	</g>
																</g>
															</g>
														</g>
													</g>
												</g>
											</g>
										</g>
									</g>
								</g>
							</g>
						</g>
					</g>
					<g>
						<g>
							<g>
								<g>
									<g>
										<g>
											<g>
												<g>
													<g>
														<g>
															<g>
																<g>
																	<g>
																		<g>
																			<g>
																				<g>
																					<path class="st8" d="M146.69,711.13c0.08,0.42,2.44,0.06,4.25-2.05c1.83-2.1,1.84-4.49,1.41-4.51
																						c-0.45-0.08-1.11,1.75-2.63,3.46C148.26,709.78,146.55,710.7,146.69,711.13z"/>
																				</g>
																			</g>
																		</g>
																	</g>
																</g>
															</g>
														</g>
													</g>
												</g>
											</g>
										</g>
									</g>
								</g>
							</g>
						</g>
					</g>
					<g>
						<g>
							<g>
								<g>
									<g>
										<g>
											<g>
												<g>
													<g>
														<g>
															<g>
																<g>
																	<g>
																		<g>
																			<g>
																				<g>
																					<path class="st8" d="M178.05,714.92c-0.3,0.35,1.14,2.01,2.05,4.46c0.96,2.43,0.99,4.63,1.45,4.69
																						c0.41,0.11,1.15-2.4,0.04-5.26C180.5,715.93,178.28,714.56,178.05,714.92z"/>
																				</g>
																			</g>
																		</g>
																	</g>
																</g>
															</g>
														</g>
													</g>
												</g>
											</g>
										</g>
									</g>
								</g>
							</g>
						</g>
					</g>
				</g>
				<g>
					<path class="st8" d="M232.57,726.17c0,0-15.59,3.18-18.77,19.92s8.35,185.29,8.35,185.29l59.15-4.74l-3.61-113.57l-1.46-22.89
						l5.07-3.89L385.27,768l-15.82-42.99l-17.39-30.26l-79.64,19.86L232.57,726.17z"/>
				</g>
				<g>
					<path class="st8" d="M428.32,697.77c0,0-43.01-62.18-55.59-71.23c-10.37-7.46-25.96-7.45-35.59-3.12
						c-9.63,4.33-160.35,79.05-160.35,79.05l22.1,55.32l143.36-49.68l21.37,33.54L383.51,768l55.87,0.44
						c2.65,0,14.64-23.7,14.64-23.7L428.32,697.77z"/>
				</g>
				<g>
					<g>
						<path class="st9" d="M213.25,759.09c-0.02,0-0.03-0.2-0.03-0.58c0.01-0.44,0.01-1.01,0.02-1.71c0.02-0.78,0.04-1.7,0.07-2.78
							c0.1-1.09,0.27-2.35,0.43-3.77c0.1-1.43,0.6-2.96,0.93-4.67c0.17-0.86,0.53-1.7,0.81-2.6c0.29-0.9,0.6-1.84,1.07-2.75
							c1.63-3.71,4.29-7.75,8.45-10.84c2.08-1.53,4.5-2.84,7.27-3.56c2.75-0.47,5.61-0.95,8.56-1.45
							c5.91-0.99,12.22-2.04,18.86-3.15c13.29-2.2,27.89-4.62,43.22-7.16c13.87-2.27,27.15-4.45,39.26-6.43l0.31-0.05l0.17,0.27
							c11.49,17.95,20.83,33.56,28.68,43.77c3.81,5.11,6.85,9.19,8.98,12.05c1.01,1.35,1.81,2.42,2.4,3.2
							c0.24,0.34,0.44,0.61,0.61,0.83c0.13,0.19,0.2,0.29,0.18,0.3c-0.01,0.01-0.09-0.08-0.25-0.25c-0.18-0.21-0.4-0.47-0.67-0.79
							c-0.62-0.76-1.46-1.79-2.52-3.11c-2.18-2.73-5.33-6.75-9.21-11.89c-8-10.13-17.48-25.72-29.02-43.6l0.48,0.22
							c-12.11,2-25.38,4.2-39.25,6.5c-15.33,2.51-29.94,4.9-43.23,7.08c-6.64,1.08-12.96,2.1-18.87,3.06
							c-2.95,0.48-5.79,0.94-8.53,1.38c-2.62,0.66-5,1.91-7.02,3.38c-4.07,2.97-6.71,6.87-8.36,10.49c-0.47,0.89-0.79,1.8-1.09,2.69
							c-0.29,0.89-0.66,1.71-0.84,2.55c-0.36,1.68-0.88,3.19-1.01,4.6c-0.2,1.39-0.37,2.64-0.52,3.74
							c-0.06,1.07-0.12,1.99-0.16,2.76c-0.05,0.7-0.09,1.26-0.12,1.7C213.29,758.9,213.27,759.09,213.25,759.09z"/>
					</g>
				</g>
				<g>
					<g>
						<path class="st9" d="M362.78,669.74c0.07,0,0.15,0.63,0.23,1.78c0.1,1.15,0.08,2.83-0.1,4.89c-0.16,2.07-0.61,4.5-1.32,7.15
							c-0.77,2.63-1.84,5.47-3.29,8.29c-1.49,2.8-3.21,5.29-4.95,7.42c-1.77,2.1-3.53,3.85-5.13,5.16c-1.59,1.32-2.96,2.3-3.97,2.87
							c-0.99,0.59-1.56,0.89-1.59,0.83c-0.1-0.16,2.07-1.51,5.08-4.24c1.52-1.36,3.18-3.12,4.88-5.21c1.65-2.12,3.31-4.56,4.77-7.3
							c1.42-2.75,2.49-5.51,3.29-8.07c0.75-2.58,1.26-4.95,1.51-6.97C362.71,672.3,362.58,669.75,362.78,669.74z"/>
					</g>
				</g>
			</g>
		</g>
		<g>
			<g>
				<g>
					<g>
						<g>
							<g>
								<g>
									<g>
										<g>
											<g>
												<g>
													<path class="st17" d="M861.34,866.94l-258.88-0.15c-31.14-0.02-56.37-25.27-56.36-56.4l0.13-649.02
														c0.01-31.15,25.27-56.4,56.43-56.38l258.88,0.15c31.14,0.02,56.36,25.27,56.36,56.4l-0.13,649.02
														C917.76,841.71,892.49,866.96,861.34,866.94z"/>
												</g>
											</g>
										</g>
									</g>
								</g>
							</g>
							<g>
								<g>
									<g>
										<g>
											<g>
												<g>
													<path class="st18" d="M861.26,128.09l-50.19-0.03c-6.73,0-12.19,5.7-12.19,12.73l0,9.1c0,7.04-5.46,12.74-12.19,12.73
														l-97.84-0.06c-6.73,0-12.19-5.71-12.19-12.75l0-9.1c0-7.04-5.46-12.74-12.19-12.75l-17.65-0.01l-43.93-0.03
														c-21.82-0.01-39.51,17.67-39.52,39.49l-0.12,633.49c0,21.81,17.66,39.49,39.47,39.5l258.37,0.15
														c21.82,0.01,39.51-17.67,39.52-39.49l0.12-633.5C900.73,145.78,883.07,128.1,861.26,128.09z"/>
												</g>
											</g>
										</g>
									</g>
								</g>
							</g>
						</g>
					</g>
				</g>
				<g>
					<g>
						<g>
							<g>
								<g>
									<g>
										<path class="st2" d="M900.73,167.59c0-21.81-17.66-39.49-39.47-39.5l-50.19-0.03c-6.73,0-12.19,5.7-12.19,12.73l0,9.1
											c0,7.04-5.46,12.74-12.19,12.73l-97.84-0.06c-6.73,0-12.19-5.71-12.19-12.75l0-9.1c0-7.04-5.46-12.74-12.19-12.75
											l-17.65-0.01l-43.93-0.03c-21.82-0.01-39.51,17.67-39.52,39.49L563.25,228h337.47L900.73,167.59z"/>
									</g>
								</g>
							</g>
						</g>
					</g>
				</g>
				<g>
					<g>
						<g>
							<g>
								<path class="st8" d="M873.27,189.85c0,0.19-6.05,0.39-13.51,0.45c-7.46,0.06-13.51-0.04-13.51-0.23
									c0-0.19,6.04-0.39,13.51-0.45C867.22,189.55,873.27,189.66,873.27,189.85z"/>
							</g>
						</g>
					</g>
					<g>
						<g>
							<g>
								<path class="st8" d="M873.33,196.76c0,0.19-6.05,0.39-13.5,0.45c-7.46,0.06-13.51-0.04-13.51-0.23
									c0-0.19,6.04-0.39,13.51-0.45C867.28,196.47,873.33,196.57,873.33,196.76z"/>
							</g>
						</g>
					</g>
					<g>
						<g>
							<g>
								<path class="st8" d="M873.39,203.67c0,0.19-6.05,0.39-13.51,0.45c-7.46,0.06-13.51-0.04-13.51-0.23
									c0-0.19,6.04-0.39,13.51-0.45C867.33,203.38,873.38,203.48,873.39,203.67z"/>
							</g>
						</g>
					</g>
				</g>
			</g>
			<g>
				<g>
					<g>
						<g>
							<polygon class="st8" points="618.47,467.68 618.47,479.93 630.72,479.93 630.72,467.68 630.72,455.44 618.47,455.44 							
								"/>
						</g>
					</g>
					<g>
						<g>
							<rect x="618.47" y="394.19" class="st8" width="12.25" height="12.25"/>
						</g>
					</g>
					<g>
						<g>
							<rect x="694.16" y="529.05" class="st8" width="12.25" height="12.25"/>
						</g>
					</g>
					<g>
						<g>
							<polygon class="st8" points="630.72,418.69 630.72,430.94 618.47,430.94 618.47,443.19 630.72,443.19 630.72,455.44 
								642.97,455.44 655.22,455.44 655.22,467.68 667.47,467.68 667.47,455.44 679.71,455.44 679.71,443.19 679.71,430.94 
								667.47,430.94 667.47,443.19 655.22,443.19 642.97,443.19 642.97,430.94 642.97,418.69 642.97,406.44 630.72,406.44 							
								"/>
						</g>
					</g>
					<g>
						<g>
							<polygon class="st8" points="655.22,394.19 642.97,394.19 642.97,406.44 655.22,406.44 667.47,406.44 667.47,394.19 							
								"/>
						</g>
					</g>
					<g>
						<g>
							<polygon class="st8" points="710.34,492.66 716.92,492.66 716.92,480.41 710.34,480.41 703.75,480.41 703.75,492.66 							
								"/>
						</g>
					</g>
					<g>
						<g>
							<rect x="667.47" y="406.44" class="st8" width="12.25" height="12.25"/>
						</g>
					</g>
					<g>
						<g>
							<rect x="753.21" y="455.44" class="st8" width="12.25" height="12.25"/>
						</g>
					</g>
					<g>
						<g>
							<rect x="765.45" y="320.7" class="st8" width="12.25" height="12.25"/>
						</g>
					</g>
					<g>
						<g>
							<polygon class="st8" points="704.21,418.69 704.21,406.44 716.46,406.44 716.46,394.19 704.21,394.19 704.21,381.95 
								691.96,381.95 691.96,394.19 679.71,394.19 679.71,406.44 691.96,406.44 691.96,418.69 691.96,430.94 691.96,443.19 
								691.96,455.44 704.21,455.44 704.21,443.19 704.21,430.94 716.46,430.94 716.46,418.69 							"/>
						</g>
					</g>
					<g>
						<g>
							<polygon class="st8" points="765.45,541.18 777.7,541.18 777.7,528.93 765.45,528.93 753.21,528.93 753.21,541.18 							"/>
						</g>
					</g>
					<g>
						<g>
							<rect x="740.96" y="320.7" class="st8" width="12.25" height="12.25"/>
						</g>
					</g>
					<g>
						<g>
							<polygon class="st8" points="750.14,418.69 750.14,406.44 737.9,406.44 737.9,394.19 725.65,394.19 725.65,406.44 
								725.65,418.69 713.4,418.69 713.4,430.94 725.65,430.94 737.9,430.94 737.9,418.69 							"/>
						</g>
					</g>
					<g>
						<g>
							<rect x="807.03" y="394.19" class="st8" width="12.25" height="12.25"/>
						</g>
					</g>
					<g>
						<g>
							<rect x="680.07" y="455.44" class="st8" width="12.25" height="12.25"/>
						</g>
					</g>
					<g>
						<g>
							<polygon class="st8" points="740.96,381.95 740.96,369.7 753.21,369.7 753.21,357.45 765.45,357.45 777.7,357.45 
								777.7,345.2 765.45,345.2 765.45,332.95 753.21,332.95 753.21,345.2 740.96,345.2 740.96,357.45 728.71,357.45 728.71,369.7 
								716.46,369.7 716.46,381.95 728.71,381.95 							"/>
						</g>
					</g>
					<g>
						<g>
							<polygon class="st8" points="740.96,467.68 740.96,455.44 753.21,455.44 753.21,443.19 740.96,443.19 728.71,443.19 
								728.71,455.44 716.46,455.44 716.46,467.68 728.71,467.68 							"/>
						</g>
					</g>
					<g>
						<g>
							<polygon class="st8" points="777.7,516.67 777.7,504.42 765.45,504.42 753.21,504.42 753.21,492.18 740.96,492.18 
								740.96,504.42 728.71,504.42 728.71,516.67 716.46,516.67 704.21,516.67 704.21,528.92 716.46,528.92 728.71,528.92 
								740.96,528.92 740.96,516.67 753.21,516.67 753.21,528.92 765.45,528.92 765.45,516.67 							"/>
						</g>
					</g>
					<g>
						<g>
							<polygon class="st8" points="728.71,332.95 728.71,320.7 716.46,320.7 704.21,320.7 704.21,332.95 691.96,332.95 
								691.96,345.2 704.21,345.2 716.46,345.2 716.46,332.95 							"/>
						</g>
					</g>
					<g>
						<g>
							<rect x="716.46" y="345.2" class="st8" width="12.25" height="12.25"/>
						</g>
					</g>
					<g>
						<g>
							<polygon class="st8" points="759.33,394.19 747.08,394.19 747.08,406.44 747.08,418.69 747.08,430.94 759.33,430.94 
								771.58,430.94 771.58,418.69 759.33,418.69 759.33,406.44 771.58,406.44 771.58,394.19 783.83,394.19 783.83,381.95 
								771.58,381.95 771.58,369.7 759.33,369.7 759.33,381.95 							"/>
						</g>
					</g>
					<g>
						<g>
							<rect x="704.21" y="357.45" class="st8" width="12.25" height="12.25"/>
						</g>
					</g>
					<g>
						<g>
							<polygon class="st8" points="753.21,479.93 753.21,492.18 765.45,492.18 777.7,492.18 777.7,479.93 789.95,479.93 
								802.2,479.93 802.2,467.68 789.95,467.68 777.7,467.68 765.45,467.68 765.45,479.93 							"/>
						</g>
					</g>
					<g>
						<g>
							<rect x="807.03" y="430.94" class="st8" width="12.25" height="12.25"/>
						</g>
					</g>
					<g>
						<g>
							<rect x="765.45" y="443.19" class="st8" width="12.25" height="12.25"/>
						</g>
					</g>
					<g>
						<g>
							<polygon class="st8" points="808.32,406.44 796.08,406.44 783.83,406.44 783.83,418.69 796.08,418.69 796.08,430.94 
								808.32,430.94 808.32,418.69 							"/>
						</g>
					</g>
					<g>
						<g>
							<rect x="789.95" y="443.19" class="st8" width="12.25" height="12.25"/>
						</g>
					</g>
					<g>
						<g>
							<path class="st8" d="M667.47,516.91h36.76v-49.24h-49.24v12.26h-12.02v12.25h12.02v12.25h-12.02v12.25h12.02v0.23h0.23v12.02
								h-12.25v12.25v12.25h12.25v-12.25h12.25v-12.25V516.91z M694.8,477.1v30.62h-30.62V477.1H694.8z"/>
						</g>
					</g>
					<g>
						<g>
							<polygon class="st8" points="826.7,467.68 838.95,467.68 838.95,455.44 826.7,455.44 814.45,455.44 802.2,455.44 
								802.2,467.68 814.45,467.68 							"/>
						</g>
					</g>
					<g>
						<g>
							<polygon class="st8" points="826.7,418.69 838.95,418.69 838.95,406.44 838.95,394.19 826.7,394.19 826.7,406.44 							"/>
						</g>
					</g>
					<g>
						<g>
							<polygon class="st8" points="729.17,480.41 716.92,480.41 716.92,492.66 716.92,504.91 729.17,504.91 729.17,492.66 							
								"/>
						</g>
					</g>
					<g>
						<g>
							<rect x="838.95" y="467.68" class="st8" width="12.25" height="12.25"/>
						</g>
					</g>
					<g>
						<g>
							<polygon class="st8" points="851.19,443.19 851.19,430.94 838.95,430.94 838.95,443.19 838.95,455.44 851.19,455.44 							
								"/>
						</g>
					</g>
					<g>
						<g>
							<polygon class="st8" points="630.72,528.93 618.47,528.93 618.47,541.18 618.47,553.42 630.72,553.42 630.72,541.18 							
								"/>
						</g>
					</g>
					<g>
						<g>
							<path class="st8" d="M851.19,381.95V320.7h-61.24v61.24H851.19z M799.14,372.76v-42.87h42.87v42.87H799.14z"/>
						</g>
					</g>
					<g>
						<g>
							<rect x="808.32" y="339.08" class="st8" width="24.5" height="24.5"/>
						</g>
					</g>
					<g>
						<g>
							<path class="st8" d="M851.19,492.18h-61.24v61.24h61.24V492.18z M799.14,544.24v-42.87h42.87v42.87H799.14z"/>
						</g>
					</g>
					<g>
						<g>
							<rect x="808.32" y="510.55" class="st8" width="24.5" height="24.5"/>
						</g>
					</g>
					<g>
						<g>
							<path class="st8" d="M618.32,320.7v61.24h61.24V320.7H618.32z M670.38,329.89v42.87H627.5v-42.87H670.38z"/>
						</g>
					</g>
					<g>
						<g>
							<rect x="636.69" y="339.08" class="st8" width="24.5" height="24.5"/>
						</g>
					</g>
				</g>
				<g>
					<g>
						<g>
							<path class="st6" d="M600.85,363.4c0-14.5,0-29,0-43.5c0-4.06,0.68-7.89,3.45-11.09c3.09-3.57,7.33-4.94,11.92-4.94
								c7.89,0,15.77,0,23.66,0c7.36,0,14.72,0,22.08,0c1.76,0,1.76-2.74,0-2.74c-15.08,0-30.16,0-45.23,0
								c-3.88,0-7.58,0.57-10.91,2.76c-4.85,3.19-7.6,8.52-7.7,14.28c-0.13,7.16,0,14.33,0,21.49c0,7.91,0,15.82,0,23.74
								C598.12,365.16,600.85,365.16,600.85,363.4L600.85,363.4z"/>
						</g>
					</g>
				</g>
				<g>
					<g>
						<g>
							<path class="st6" d="M657.95,574.11c-14.5,0-29,0-43.5,0c-4.06,0-7.89-0.68-11.09-3.45c-3.57-3.09-4.94-7.33-4.94-11.92
								c0-7.89,0-15.77,0-23.66c0-7.36,0-14.72,0-22.08c0-1.76-2.74-1.76-2.74,0c0,15.08,0,30.16,0,45.23
								c0,3.88,0.57,7.58,2.76,10.91c3.19,4.85,8.52,7.6,14.28,7.7c7.16,0.13,14.33,0,21.49,0c7.91,0,15.82,0,23.74,0
								C659.71,576.84,659.71,574.11,657.95,574.11L657.95,574.11z"/>
						</g>
					</g>
				</g>
				<g>
					<g>
						<g>
							<path class="st6" d="M867.34,512.57c0,14.5,0,29,0,43.5c0,4.06-0.68,7.89-3.45,11.09c-3.09,3.57-7.33,4.94-11.92,4.94
								c-7.89,0-15.77,0-23.66,0c-7.36,0-14.72,0-22.08,0c-1.76,0-1.76,2.74,0,2.74c15.08,0,30.16,0,45.23,0
								c3.88,0,7.58-0.57,10.91-2.76c4.85-3.19,7.6-8.52,7.7-14.28c0.13-7.16,0-14.33,0-21.49c0-7.91,0-15.82,0-23.74
								C870.08,510.81,867.34,510.81,867.34,512.57L867.34,512.57z"/>
						</g>
					</g>
				</g>
				<g>
					<g>
						<g>
							<path class="st6" d="M807.03,303.87c14.5,0,29,0,43.5,0c4.05,0,7.89,0.68,11.09,3.45c3.57,3.09,4.94,7.33,4.94,11.92
								c0,7.89,0,15.77,0,23.66c0,7.36,0,14.72,0,22.08c0,1.76,2.74,1.76,2.74,0c0-15.08,0-30.16,0-45.23
								c0-3.88-0.57-7.58-2.76-10.91c-3.19-4.85-8.52-7.6-14.28-7.7c-7.16-0.13-14.33,0-21.49,0c-7.91,0-15.82,0-23.74,0
								C805.27,301.14,805.27,303.87,807.03,303.87L807.03,303.87z"/>
						</g>
					</g>
				</g>
			</g>
			<g>
				<path class="st3" d="M848.14,776.73H609.28c-9.18,0-16.62-7.44-16.62-16.62v-39.5c0-9.18,7.44-16.62,16.62-16.62h238.86
					c9.18,0,16.62,7.44,16.62,16.62v39.5C864.76,769.29,857.32,776.73,848.14,776.73z"/>
			</g>
			<g>
				<g>
					<path class="st8" d="M836.21,754.04c0,0.28-46.66,0.52-104.21,0.52c-57.57,0-104.22-0.23-104.22-0.52
						c0-0.28,46.65-0.52,104.22-0.52C789.54,753.53,836.21,753.76,836.21,754.04z"/>
				</g>
			</g>
			<text transform="matrix(1 0 0 1 667.467 749.4994)" class="st19 st20 st21">Tasreeh</text>
		</g>
	</g>
</g>
</svg>
